<?xml version="1.0" standalone="no"?>
<!DOCTYPE svg PUBLIC "-//W3C//DTD SVG 20010904//EN"
 "http://www.w3.org/TR/2001/REC-SVG-20010904/DTD/svg10.dtd">
<svg version="1.0" xmlns="http://www.w3.org/2000/svg"
 width="22500.000000pt" height="7500.000000pt" viewBox="0 0 22500.000000 7500.000000"
 preserveAspectRatio="xMidYMid meet">

<g transform="translate(0.000000,7500.000000) scale(0.100000,-0.100000)"
fill="#000000" stroke="none">
<path d="M50270 58160 c-1915 -62 -3723 -504 -5415 -1324 -1159 -562 -2294
-1338 -3167 -2167 -80 -76 -153 -139 -160 -139 -8 0 -27 14 -44 31 -16 17 -94
90 -174 163 -2117 1922 -4823 3105 -7735 3381 -688 65 -1570 73 -2260 19
-1588 -122 -3063 -499 -4530 -1159 -206 -93 -701 -343 -920 -465 -1736 -968
-3210 -2272 -4345 -3845 -594 -824 -1095 -1721 -1488 -2666 -897 -2154 -1217
-4534 -921 -6859 261 -2054 991 -4013 2140 -5736 361 -541 705 -989 1161
-1509 75 -85 19092 -19037 19109 -19043 5 -2 4196 4181 9314 9295 9279 9271
9306 9298 9358 9310 262 62 696 74 1482 43 1224 -49 1821 -22 2309 104 531
137 864 398 990 778 47 139 57 205 63 403 10 365 -36 547 -205 798 -116 175
-294 362 -442 468 -102 73 -153 100 -244 128 -67 21 -80 21 -967 21 -521 0
-899 4 -899 9 0 19 124 269 289 581 239 455 407 833 607 1366 704 1887 980
3833 819 5784 -287 3472 -1970 6738 -4664 9049 -2517 2159 -5731 3287 -9061
3181z m712 -500 c481 -14 883 -46 1328 -106 2269 -306 4454 -1255 6310 -2741
705 -564 1402 -1252 1969 -1943 1066 -1300 1863 -2756 2358 -4305 279 -875
463 -1802 537 -2705 55 -660 55 -1371 0 -2020 -130 -1553 -539 -3032 -1255
-4533 -143 -300 -237 -472 -469 -852 -224 -367 -286 -475 -377 -655 l-74 -145
1313 -5 1313 -5 60 -35 c105 -60 289 -206 332 -262 106 -139 154 -270 160
-443 4 -100 2 -135 -16 -210 -53 -220 -193 -412 -390 -532 l-68 -42 -2024 -41
-2024 -41 -1545 -1543 c-850 -849 -4999 -4993 -9220 -9210 -4221 -4216 -7677
-7665 -7680 -7664 -19 8 -18614 18540 -18709 18646 -368 409 -785 951 -1118
1452 -1522 2291 -2264 5008 -2123 7765 143 2776 1178 5425 2945 7540 1320
1580 3039 2845 4922 3620 1382 570 2771 878 4303 955 403 20 1072 11 1515 -20
1948 -140 3858 -726 5540 -1703 918 -533 1766 -1176 2491 -1889 l191 -189 298
252 c1489 1254 2203 1748 3299 2285 1691 827 3455 1273 5236 1323 146 4 281 8
300 9 19 1 187 -3 372 -8z"/>
<path d="M31875 57054 c-33 -2 -148 -8 -255 -14 -1384 -78 -2811 -412 -4102
-961 -1796 -764 -3400 -1964 -4639 -3469 -998 -1213 -1756 -2623 -2219 -4128
-317 -1032 -490 -2035 -541 -3142 -13 -283 -7 -1004 11 -1260 42 -618 108
-1122 220 -1680 419 -2095 1354 -4008 2754 -5638 121 -141 2026 -2047 9261
-9272 5009 -5002 9110 -9095 9114 -9095 4 0 3995 3980 8870 8845 l8863 8845
-3694 3 c-3361 2 -3694 1 -3705 -14 -6 -8 -1136 -1808 -2510 -3999 -1374
-2192 -2500 -3985 -2503 -3985 -3 0 -1283 3602 -2845 8005 -1562 4403 -2842
8005 -2845 8005 -3 0 -466 -946 -1029 -2102 -563 -1157 -1433 -2943 -1934
-3970 l-910 -1868 -1857 0 -1857 0 -52 -107 c-355 -730 -947 -1245 -1635
-1423 -199 -51 -317 -65 -566 -65 -278 0 -458 25 -714 100 -922 269 -1554
1013 -1681 1978 -20 154 -20 441 0 594 70 528 287 975 664 1366 345 357 781
591 1266 678 150 27 501 37 657 19 805 -92 1506 -562 1906 -1277 44 -79 124
-247 145 -307 7 -17 18 -18 190 -12 100 3 668 11 1262 17 776 8 1083 15 1091
23 6 6 1212 2446 2680 5423 1468 2977 2671 5413 2674 5413 3 0 4572 -13052
5768 -16477 7 -21 24 -15 91 30 l63 42 1713 2730 1713 2730 308 2 c407 4 9432
63 9506 63 l56 0 70 98 c38 53 128 185 199 292 1150 1727 1832 3712 1993 5795
43 565 43 1286 0 1855 -147 1919 -735 3765 -1724 5415 -142 236 -440 684 -606
910 -1413 1921 -3340 3382 -5550 4208 -1151 430 -2252 668 -3530 764 -295 22
-1271 25 -1555 5 -1070 -75 -1948 -236 -2906 -531 -1341 -413 -2689 -1109
-3764 -1945 -367 -285 -674 -554 -1380 -1210 -159 -148 -304 -283 -322 -299
l-31 -29 -334 304 c-791 720 -1185 1055 -1654 1404 -959 715 -2120 1312 -3319
1707 -1005 331 -1964 516 -3105 598 -140 10 -1112 20 -1235 13z m1120 -564
c1467 -90 2827 -418 4135 -997 880 -390 1760 -921 2507 -1515 338 -268 481
-399 1053 -963 364 -359 603 -582 773 -721 l58 -47 337 334 c511 507 865 832
1292 1185 996 826 1992 1434 3044 1861 1933 784 4025 1052 6066 777 3427 -462
6494 -2436 8320 -5355 964 -1540 1550 -3255 1735 -5069 65 -643 73 -1471 20
-2110 -164 -1971 -796 -3795 -1888 -5447 l-120 -183 -241 0 c-133 0 -2351 -14
-4931 -31 -4319 -29 -4691 -32 -4703 -48 -7 -9 -693 -1089 -1524 -2401 -831
-1312 -1516 -2391 -1522 -2397 -9 -10 -743 2039 -2986 8326 -1636 4587 -2978
8336 -2982 8333 -4 -4 -1290 -2639 -2858 -5857 -1569 -3217 -2854 -5852 -2856
-5854 -4 -5 -1718 -52 -1788 -49 l-59 3 -71 118 c-451 745 -1167 1252 -2006
1420 -226 45 -301 52 -590 52 -286 0 -356 -6 -575 -50 -711 -143 -1328 -543
-1767 -1145 -308 -424 -494 -898 -554 -1410 -22 -191 -15 -537 15 -720 206
-1281 1191 -2286 2441 -2490 628 -102 1313 15 1865 318 242 133 437 283 666
511 186 186 334 366 477 582 l97 146 240 6 c132 4 958 14 1835 22 1414 14
1596 18 1607 31 6 9 800 1586 1763 3505 964 1919 1755 3491 1758 3493 4 2
1242 -3550 2751 -7893 1509 -4343 2747 -7906 2752 -7919 8 -21 19 -11 142 130
l133 153 2604 4183 2604 4182 2886 0 2885 0 -355 -354 c-195 -195 -3876 -3867
-8179 -8160 l-7823 -7806 -6897 6888 c-3793 3788 -7806 7797 -8918 8908 -2054
2052 -2094 2094 -2407 2482 -925 1151 -1640 2489 -2069 3877 -278 897 -432
1733 -509 2760 -20 268 -17 1261 5 1545 70 905 205 1663 442 2484 196 679 438
1297 767 1956 237 476 423 798 713 1235 429 646 854 1169 1395 1719 597 606
1197 1100 1900 1566 1168 772 2480 1330 3850 1635 718 160 1378 243 2215 279
146 6 857 -3 1030 -14z"/>
<path d="M183382 58152 c-9 -9 -58 -73 -107 -142 -49 -69 -113 -147 -140 -175
-86 -84 -232 -181 -400 -265 -411 -205 -870 -297 -1695 -340 -938 -49 -1883
-50 -3710 -5 -1190 29 -1849 38 -2465 31 -671 -7 -997 -15 -1015 -26 -7 -4
-163 -1723 -444 -4891 l-432 -4884 624 -3 625 -2 66 54 c36 29 153 136 260
237 495 468 499 472 704 612 1355 932 2927 1252 4342 887 203 -52 320 -90 515
-167 1221 -482 2174 -1485 2707 -2848 498 -1271 633 -2857 368 -4302 -157
-853 -454 -1629 -861 -2251 -902 -1376 -2284 -1955 -3979 -1666 -684 116
-1224 370 -1633 769 -224 217 -377 422 -544 730 -194 357 -342 753 -593 1590
-239 798 -385 1206 -545 1525 -256 511 -759 859 -1343 931 -139 17 -403 6
-532 -21 -309 -66 -551 -194 -760 -404 -128 -129 -214 -249 -290 -409 -146
-306 -215 -648 -202 -1012 16 -438 137 -865 381 -1340 427 -832 1202 -1665
2062 -2217 2132 -1368 4986 -1683 7579 -837 1106 360 2110 921 2927 1636 266
232 596 573 821 848 804 980 1296 2156 1431 3420 56 519 46 1158 -25 1715
-159 1250 -633 2411 -1374 3366 -174 224 -314 384 -530 602 -341 347 -628 590
-1015 858 -1603 1113 -3685 1569 -5655 1238 -1294 -218 -2501 -757 -3500
-1566 -75 -60 -234 -219 -500 -497 -214 -224 -391 -405 -392 -402 -1 3 103
1363 230 3021 l232 3015 4525 5 4525 5 82 33 c90 37 223 116 318 192 96 76
237 229 268 291 18 36 152 538 412 1550 212 823 385 1504 385 1513 0 15 -73
16 -845 16 -793 0 -846 -1 -863 -18z"/>
<path d="M81676 57738 c-2 -18 -14 -130 -26 -248 -51 -505 -144 -1012 -265
-1440 -100 -354 -204 -628 -355 -935 -376 -765 -893 -1271 -1560 -1528 -248
-96 -350 -117 -840 -171 -572 -64 -610 -77 -685 -231 -155 -318 -36 -941 191
-1004 26 -7 288 -11 792 -11 l752 0 0 -5767 c0 -5127 2 -5783 15 -5903 98
-853 371 -1554 836 -2140 108 -136 384 -412 524 -524 554 -441 1224 -707 2020
-801 215 -26 739 -32 980 -11 877 76 1597 304 2255 714 188 118 429 298 543
407 l27 26 0 609 c0 336 -2 610 -4 610 -3 0 -55 -51 -118 -113 -448 -446
-1066 -751 -1658 -818 -148 -17 -437 -6 -561 20 -454 97 -779 355 -983 781
-94 196 -148 388 -243 865 l-28 140 -3 5953 -2 5952 1687 0 c1169 0 1700 3
1727 11 46 13 116 75 149 132 73 125 111 302 110 517 0 268 -60 456 -166 520
-31 20 -60 20 -1769 20 l-1738 0 0 2200 0 2200 -800 0 -799 0 -5 -32z"/>
<path d="M154326 57728 c-3 -24 -10 -97 -16 -163 -18 -192 -58 -494 -95 -713
-155 -910 -423 -1646 -806 -2212 -398 -589 -934 -979 -1566 -1141 -116 -29
-208 -45 -385 -64 -697 -75 -753 -88 -822 -182 -70 -96 -108 -244 -108 -428
-1 -327 110 -603 258 -644 26 -7 288 -11 791 -11 l753 0 3 -5852 c3 -5456 4
-5861 20 -5978 107 -782 351 -1387 773 -1915 120 -150 392 -420 547 -543 628
-499 1407 -789 2312 -863 182 -15 695 -6 875 15 815 96 1549 357 2199 783 139
91 387 274 444 328 l27 26 0 609 c0 336 -2 610 -4 610 -2 0 -57 -53 -123 -118
-224 -224 -456 -388 -768 -542 -399 -197 -736 -283 -1110 -282 -283 0 -484 44
-697 154 -304 156 -537 429 -658 773 -79 225 -154 490 -208 739 l-26 121 -3
5968 -3 5967 1687 0 c1176 0 1700 3 1727 11 58 16 131 90 171 173 138 290 116
797 -44 979 l-33 37 -1754 0 -1754 0 0 2200 0 2200 -799 0 -800 0 -5 -42z"/>
<path d="M197365 57724 c-417 -25 -641 -47 -915 -90 -1387 -214 -2622 -788
-3681 -1709 -162 -141 -594 -574 -739 -740 -693 -796 -1254 -1729 -1688 -2805
-934 -2321 -1185 -5138 -692 -7760 432 -2292 1387 -4264 2725 -5629 330 -336
582 -559 910 -804 1148 -859 2456 -1330 3960 -1427 205 -13 784 -13 990 0
1834 117 3416 830 4705 2120 840 841 1534 1908 2046 3144 1096 2646 1314 5886
589 8775 -721 2875 -2287 5055 -4410 6136 -865 440 -1794 693 -2855 775 -135
11 -832 21 -945 14z m815 -1168 c372 -51 653 -134 965 -285 498 -241 917 -603
1291 -1117 835 -1147 1355 -3018 1533 -5514 46 -641 61 -1034 68 -1825 7 -836
-9 -1552 -52 -2390 -155 -2953 -734 -5061 -1723 -6275 -108 -132 -339 -368
-457 -468 -391 -329 -811 -540 -1289 -647 -312 -69 -637 -100 -976 -92 -246 6
-382 21 -590 63 -441 91 -881 301 -1255 599 -142 113 -423 397 -548 555 -407
509 -753 1186 -1014 1980 -626 1905 -869 4646 -713 8045 110 2384 531 4242
1248 5505 90 159 292 462 401 600 559 714 1254 1131 2081 1250 80 11 192 25
250 30 157 13 643 4 780 -14z"/>
<path d="M166985 57495 c-187 -31 -457 -117 -730 -233 -71 -30 -287 -131 -480
-225 -685 -332 -813 -386 -1235 -525 -709 -233 -1443 -394 -2353 -517 -103
-14 -190 -25 -192 -25 -3 0 -5 -241 -5 -536 l0 -537 93 7 c50 4 202 16 337 28
292 25 725 30 865 10 272 -39 464 -124 585 -260 60 -67 115 -171 128 -244 7
-34 16 -2777 27 -7608 16 -7111 16 -7559 0 -7619 -77 -294 -323 -524 -733
-685 -215 -85 -550 -164 -952 -226 -107 -16 -201 -30 -207 -30 -10 0 -13 -108
-13 -505 l0 -505 3763 2 3762 3 3 503 c1 276 0 502 -4 502 -29 0 -702 129
-814 156 -559 134 -893 359 -1049 707 -63 139 -61 124 -49 600 16 584 16 3772
0 4767 -49 3056 -60 3880 -68 5155 -8 1290 10 2803 46 3875 16 459 37 745 105
1430 132 1325 137 1717 28 2055 -81 253 -232 409 -453 471 -79 22 -295 27
-405 9z"/>
<path d="M109445 53764 c-114 -21 -346 -101 -558 -191 -210 -89 -671 -317
-1273 -626 -230 -119 -500 -254 -599 -300 -517 -242 -1315 -479 -2262 -672
l-33 -7 0 -499 0 -499 529 0 529 0 139 -56 c282 -114 360 -160 470 -277 202
-216 293 -507 338 -1077 58 -748 70 -1135 70 -2280 0 -1064 -2 -1141 -55
-2690 -75 -2170 -89 -2924 -72 -3782 7 -315 17 -670 24 -788 6 -118 11 -303
12 -410 0 -211 -8 -260 -70 -417 -170 -430 -597 -693 -1364 -837 -130 -25
-512 -86 -537 -86 -10 0 -13 -108 -13 -505 l0 -505 3763 2 3762 3 0 500 0 500
-90 17 c-49 9 -180 33 -290 53 -645 119 -1049 278 -1290 507 -90 85 -154 170
-194 260 -64 141 -59 -244 -62 4568 l-2 4385 45 175 c108 413 258 811 458
1211 392 783 894 1358 1405 1609 297 146 749 231 1069 201 212 -20 348 -57
533 -146 200 -95 357 -208 703 -505 400 -342 648 -488 968 -569 183 -47 418
-66 612 -51 247 20 429 68 635 170 555 276 898 859 897 1530 0 491 -176 932
-511 1282 -57 60 -138 136 -180 170 -378 305 -972 523 -1611 590 -182 19 -618
16 -805 -6 -1013 -117 -1955 -533 -2775 -1224 -267 -226 -582 -565 -793 -854
-131 -181 -205 -305 -672 -1132 -236 -417 -431 -754 -433 -748 -1 5 100 759
227 1674 250 1813 239 1705 191 1842 -115 334 -492 555 -835 490z"/>
<path d="M96300 53683 c-1113 -34 -2268 -225 -3179 -524 -1285 -423 -2414
-1173 -3050 -2028 -311 -419 -499 -846 -582 -1326 -40 -232 -37 -618 7 -874
97 -566 545 -964 1228 -1092 140 -26 440 -37 582 -20 617 73 1015 358 1294
926 123 253 203 493 365 1099 158 592 216 784 322 1051 321 812 815 1306 1572
1569 228 79 531 146 831 183 205 25 676 25 845 0 324 -48 570 -139 756 -279
142 -107 245 -242 344 -451 148 -313 232 -686 282 -1257 22 -258 24 -1200 3
-1805 -16 -471 -19 -1084 -7 -1321 l8 -150 -98 -17 c-2571 -449 -5068 -1239
-6598 -2087 -1499 -832 -2377 -1835 -2685 -3070 -109 -437 -160 -843 -160
-1281 0 -653 118 -1193 381 -1737 256 -532 645 -998 1144 -1373 1074 -807
2631 -1141 4115 -884 1282 223 2399 845 3169 1764 168 201 220 279 581 856
189 303 348 555 353 560 6 6 7 -95 4 -270 -6 -299 -12 -365 -91 -981 -68 -519
-77 -616 -83 -884 -8 -359 23 -557 118 -747 78 -155 190 -252 364 -312 96 -33
107 -35 270 -39 139 -3 193 0 300 17 375 61 742 192 1575 561 239 106 541 235
670 287 473 191 1336 461 2246 703 l81 21 6 286 c4 158 7 412 7 565 0 261 -1
279 -17 274 -10 -3 -83 -14 -163 -25 -560 -77 -991 -40 -1269 110 -157 85
-253 185 -336 349 -124 248 -158 461 -186 1180 -13 332 -7 1609 11 2130 14
422 48 1497 60 1900 41 1383 38 2600 -10 3450 -87 1529 -323 2602 -720 3271
-533 898 -1629 1469 -3181 1659 -449 54 -1001 78 -1479 63z m1630 -9651 c0
-2282 -1 -2351 -19 -2423 -65 -251 -422 -901 -844 -1534 -165 -247 -238 -344
-376 -498 -539 -601 -1162 -992 -1781 -1117 -477 -97 -928 -44 -1345 159 -464
226 -828 601 -1080 1116 -130 264 -202 478 -260 770 -47 233 -65 402 -72 660
-16 610 102 1275 317 1787 310 737 877 1402 1667 1956 894 626 2101 1123 3393
1396 300 63 352 74 378 75 l22 1 0 -2348z"/>
<path d="M125108 53650 c-905 -35 -1839 -230 -2643 -552 -177 -71 -521 -237
-688 -332 -761 -432 -1419 -1048 -1900 -1778 -517 -783 -825 -1686 -897 -2627
-13 -173 -13 -598 0 -772 69 -902 359 -1774 841 -2531 372 -585 899 -1103
1654 -1627 66 -46 124 -87 128 -91 4 -4 -104 -7 -240 -7 -432 0 -767 -52
-1133 -174 -851 -283 -1486 -917 -1703 -1699 -65 -232 -91 -533 -68 -763 55
-530 289 -1005 696 -1412 484 -485 1083 -796 2103 -1091 842 -243 1757 -416
3612 -683 1745 -252 2227 -331 2935 -487 718 -158 1119 -281 1460 -449 348
-171 567 -350 736 -603 212 -317 302 -670 302 -1187 0 -467 -59 -838 -189
-1194 -48 -132 -189 -415 -267 -538 -665 -1042 -2034 -1704 -3732 -1804 -245
-14 -754 -6 -985 15 -1544 146 -2717 758 -3145 1641 -139 286 -199 568 -199
925 0 305 27 474 164 1025 141 566 166 738 157 1043 -6 199 -22 299 -72 442
-132 385 -456 656 -924 775 -533 135 -1222 47 -1659 -213 -586 -348 -933 -966
-1034 -1837 -19 -165 -16 -607 6 -785 107 -884 413 -1530 1006 -2120 827 -824
2144 -1423 3785 -1724 1043 -191 2212 -244 3330 -151 1149 96 2245 342 3200
720 1978 781 3218 2066 3540 3670 116 577 122 1204 15 1708 -124 583 -388
1158 -703 1532 -110 131 -324 338 -462 448 -126 101 -402 287 -555 375 -853
487 -2058 853 -3725 1131 -646 108 -1185 183 -2325 326 -1837 230 -2510 340
-3134 511 -1050 288 -1478 716 -1335 1334 64 279 268 473 580 554 151 39 267
50 494 49 376 -1 693 -49 1505 -226 527 -115 1008 -165 1670 -174 649 -9 1115
27 1700 128 1017 176 1977 547 2750 1061 699 466 1260 1058 1654 1747 131 229
300 612 384 871 318 978 340 2057 67 3240 -60 260 -94 369 -194 624 -151 382
-182 495 -182 656 -1 107 16 169 63 237 75 109 245 172 471 173 174 0 297 -18
812 -124 306 -62 457 -80 630 -73 320 12 509 124 630 372 126 259 176 664 145
1188 -17 290 -49 461 -115 618 -123 292 -381 489 -760 583 -171 42 -273 51
-570 50 -268 0 -301 -2 -435 -27 -80 -14 -194 -40 -253 -57 -804 -232 -1371
-874 -1588 -1797 -37 -157 -39 -159 -102 -127 -65 34 -160 120 -366 330 -225
231 -268 269 -486 432 -1193 896 -2800 1365 -4457 1302z m743 -1120 c624 -91
1172 -443 1608 -1033 787 -1063 1147 -2896 920 -4677 -189 -1483 -765 -2651
-1558 -3159 -414 -265 -1090 -417 -1609 -360 -764 82 -1386 526 -1864 1328
-341 571 -590 1360 -697 2206 -49 384 -55 506 -55 1030 0 524 6 643 55 1030
160 1271 604 2337 1239 2972 547 548 1212 772 1961 663z"/>
<path d="M142100 53629 c-1656 -94 -3212 -726 -4405 -1791 -159 -142 -468
-454 -596 -603 -989 -1146 -1652 -2627 -1924 -4300 -54 -333 -88 -626 -117
-1020 -16 -224 -17 -1074 0 -1300 62 -844 187 -1544 408 -2273 157 -520 334
-958 583 -1447 153 -300 259 -483 435 -750 904 -1368 2109 -2275 3732 -2808
619 -204 1236 -329 1924 -393 234 -21 897 -30 1141 -15 971 61 1818 278 2589
662 554 277 960 568 1380 988 213 213 338 358 522 604 391 523 591 937 590
1222 0 252 -161 383 -492 402 -117 6 -290 -9 -372 -33 -137 -41 -271 -132
-382 -260 -94 -109 -192 -260 -336 -519 -141 -255 -234 -399 -350 -543 -365
-456 -800 -807 -1305 -1052 -333 -162 -646 -263 -1005 -324 -267 -46 -338 -51
-705 -51 -307 1 -371 3 -520 24 -652 87 -1130 255 -1583 554 -951 629 -1654
1794 -2047 3390 -210 856 -315 1733 -315 2640 l0 347 4400 0 c3190 0 4414 3
4452 11 129 27 553 218 664 299 88 64 211 194 282 298 181 264 293 618 344
1087 19 179 16 743 -5 970 -71 733 -242 1470 -484 2080 -546 1379 -1571 2492
-2924 3175 -1072 541 -2337 799 -3579 729z m720 -1089 c842 -103 1511 -644
1976 -1599 405 -831 648 -1933 734 -3331 15 -241 24 -1004 15 -1232 l-7 -188
-3293 0 -3292 0 -7 163 c-7 190 8 724 29 1017 108 1463 439 2721 951 3612 349
608 776 1036 1278 1283 327 161 675 247 1166 289 71 6 357 -3 450 -14z"/>
<path d="M91070 24177 c-161 -55 -273 -173 -315 -332 -13 -53 -15 -373 -15
-2830 0 -2310 3 -2779 14 -2821 44 -166 186 -306 347 -343 28 -7 421 -11 1089
-11 841 0 1055 3 1095 14 285 76 427 389 297 654 -53 110 -155 196 -273 233
-57 18 -103 19 -835 19 l-774 0 0 2498 c0 2746 4 2571 -62 2694 -107 200 -354
298 -568 225z"/>
<path d="M99788 24177 c-164 -56 -286 -197 -318 -367 -7 -34 -10 -992 -10
-2789 0 -3009 -4 -2810 62 -2933 123 -230 417 -316 652 -190 65 35 153 123
188 188 62 116 58 -97 58 2934 0 3027 4 2820 -57 2932 -110 202 -358 299 -575
225z"/>
<path d="M118548 24177 c-130 -45 -223 -130 -285 -262 l-28 -60 0 -2836 0
-2835 37 -75 c43 -87 113 -163 191 -208 113 -64 18 -61 1689 -61 1484 0 1520
0 1557 19 100 51 169 185 191 370 28 225 -51 464 -177 538 l-48 28 -1247 3
-1248 2 0 935 0 935 1248 2 1247 3 47 27 c126 75 206 318 178 543 -22 174 -78
288 -175 358 l-30 22 -1255 5 -1255 5 -3 802 -2 803 1247 2 1248 3 47 27 c160
94 233 437 147 692 -37 109 -108 201 -175 226 -16 6 -605 10 -1552 10 l-1527
-1 -67 -22z"/>
<path d="M136970 21020 l0 -3181 988 4 c1009 5 1044 6 1327 48 1181 174 1856
760 1975 1714 19 149 14 432 -9 565 -101 579 -493 1017 -1141 1273 -264 104
-612 181 -910 202 -47 3 -109 8 -139 11 l-55 6 130 33 c321 83 609 230 834
427 199 174 341 413 392 658 17 79 19 122 15 260 -6 240 -47 382 -156 548
-208 315 -577 498 -1181 585 -137 19 -196 21 -1107 24 l-963 4 0 -3181z m1942
2786 c172 -33 313 -109 444 -241 127 -127 206 -282 234 -458 18 -108 8 -342
-20 -477 -40 -196 -111 -323 -260 -463 -68 -64 -103 -88 -194 -132 -187 -90
-173 -88 -713 -93 l-473 -3 0 940 0 941 454 0 c350 0 471 -3 528 -14z m218
-2478 c148 -37 219 -62 345 -123 420 -204 714 -572 823 -1029 25 -103 27 -128
27 -336 0 -250 -9 -312 -70 -497 -167 -502 -602 -888 -1130 -1002 -148 -33
-299 -41 -767 -41 l-428 0 0 1531 0 1530 548 -4 547 -3 105 -26z"/>
<path d="M148760 24186 c-117 -31 -242 -131 -294 -234 -60 -118 -56 88 -56
-2932 0 -2453 2 -2772 15 -2825 45 -170 187 -309 355 -344 41 -9 438 -11 1576
-9 l1521 3 41 29 c173 119 227 505 106 753 -39 81 -105 147 -163 163 -23 6
-471 10 -1263 10 l-1228 0 0 935 0 935 1221 0 c901 0 1232 3 1267 12 33 8 60
25 95 60 199 200 175 722 -41 859 l-46 29 -1248 0 -1248 0 0 805 0 805 1221 0
c865 0 1233 3 1264 11 237 60 319 592 131 847 -29 39 -59 66 -88 81 l-44 21
-1525 -1 c-1170 0 -1534 -3 -1569 -13z"/>
<path d="M178628 24189 c-163 -38 -317 -201 -348 -368 -7 -35 -10 -1003 -10
-2803 0 -3051 -5 -2826 66 -2945 20 -32 47 -71 62 -87 44 -47 141 -105 212
-126 64 -20 95 -20 1596 -18 l1530 3 42 27 c56 37 107 116 138 213 35 106 43
284 20 395 -32 153 -123 284 -215 310 -23 6 -471 10 -1263 10 l-1228 0 0 935
0 935 1248 2 1247 3 37 23 c246 153 253 749 10 903 l-46 29 -1248 0 -1248 0 0
805 0 805 1248 2 1247 3 37 23 c246 153 253 749 10 903 l-46 29 -1530 -1
c-847 -1 -1548 -5 -1568 -10z"/>
<path d="M188718 24181 c-79 -26 -134 -60 -196 -122 -60 -60 -117 -167 -132
-248 -7 -35 -10 -1046 -10 -2896 0 -3216 -8 -2911 83 -3000 32 -31 68 -55 93
-63 28 -8 128 -12 316 -12 l274 0 52 26 c58 29 96 69 126 134 21 45 21 55 27
1270 4 674 7 1391 8 1593 l1 368 423 -4 c478 -4 495 -6 652 -82 165 -80 283
-204 413 -434 33 -58 261 -513 507 -1011 765 -1546 868 -1751 912 -1792 65
-64 91 -68 397 -68 l272 0 52 26 c98 49 146 134 140 248 l-4 71 -578 1135
c-318 624 -609 1187 -646 1250 -159 270 -321 432 -550 549 -172 89 -405 156
-635 184 l-100 12 130 29 c917 200 1364 676 1368 1456 1 380 -106 662 -342
898 -108 108 -218 188 -364 261 -196 100 -420 168 -693 213 -136 21 -161 22
-1039 25 -852 2 -903 1 -957 -16z m1874 -510 c309 -107 530 -355 594 -668 24
-113 15 -463 -15 -580 -84 -335 -356 -594 -696 -664 -81 -17 -142 -19 -601
-19 l-511 0 -6 302 c-4 166 -7 609 -7 985 l0 684 573 -3 572 -3 97 -34z"/>
<path d="M157597 24089 c-66 -15 -145 -59 -201 -110 -107 -97 -156 -209 -156
-354 0 -128 37 -226 123 -330 l25 -30 774 -5 773 -5 5 -2525 c4 -1816 8 -2533
16 -2555 58 -158 172 -269 322 -315 70 -22 179 -26 251 -9 182 42 334 208 361
395 6 45 10 941 10 2541 l0 2473 793 2 c898 3 826 -3 917 88 58 57 87 117 99
205 28 193 -62 380 -231 482 -111 67 19 63 -2008 62 -1040 -1 -1851 -5 -1873
-10z"/>
<path d="M168200 24077 c-161 -55 -273 -173 -315 -332 -39 -153 3 -328 107
-441 l41 -44 768 0 769 0 0 -2495 c0 -1777 3 -2509 11 -2547 37 -179 189 -332
367 -369 77 -16 203 -6 275 21 123 46 231 157 280 287 l22 58 3 2523 2 2522
788 0 c744 0 789 1 828 19 212 96 268 395 116 619 -46 68 -138 141 -219 174
l-58 23 -1860 2 -1860 3 -65 -23z"/>
<path d="M111420 24019 c-127 -21 -272 -124 -331 -235 -15 -27 -367 -949 -784
-2049 -417 -1100 -761 -2004 -765 -2008 -4 -4 -375 869 -825 1940 -450 1071
-833 1981 -851 2022 -45 98 -95 162 -166 212 -219 153 -517 103 -668 -113 -79
-111 -109 -261 -77 -383 14 -52 2082 -4987 2140 -5105 33 -67 131 -160 214
-203 192 -100 333 -108 493 -30 97 47 166 116 213 213 28 58 1853 4849 1939
5090 49 138 43 263 -19 390 -64 131 -184 224 -330 255 -75 16 -103 17 -183 4z"/>
</g>
</svg>
