<?xml version="1.0" encoding="utf-8"?>
<!DOCTYPE svg PUBLIC "-//W3C//DTD SVG 20010904//EN" "http://www.w3.org/TR/2001/REC-SVG-20010904/DTD/svg10.dtd">
<svg version="1.0" xmlns="http://www.w3.org/2000/svg" width="2002pt" height="668pt" viewBox="0 0 2002 668" style="" preserveAspectRatio="xMidYMid meet">
<g fill="#007F00FF" stroke="#007F00FF">
<path d="M 275.500 151.610 C 245.432 156.048 224.455 166.234 204.935 185.875 C 186.103 204.823 175.403 226.370 171.536 253.128 C 169.613 266.436 169.612 271.549 171.531 284.872 C 173.320 297.286 176.581 308.189 181.873 319.443 C 190.722 338.260 189.173 336.562 282.668 429.891 L 370.214 517.281 453.110 434.391 L 536.006 351.500 552.253 351.432 C 570.602 351.356 574.750 350.317 577.434 345.128 C 579.390 341.344 579.413 338.699 577.520 335.039 C 574.651 329.492 571.546 328.000 562.865 328.000 C 558.143 328.000 555.000 327.589 555.000 326.971 C 555.000 326.406 556.376 323.218 558.057 319.887 C 573.754 288.791 573.532 248.861 557.486 217.000 C 528.220 158.891 460.455 135.069 401.259 162.079 C 393.287 165.717 385.284 170.808 376.707 177.698 L 369.914 183.155 365.858 179.490 C 352.824 167.715 331.918 157.520 312.500 153.470 C 304.785 151.861 281.671 150.699 275.500 151.610 M 477.000 157.571 C 491.441 161.105 510.430 170.277 521.000 178.824 C 529.377 185.598 538.786 195.465 544.529 203.500 C 567.544 235.700 572.268 274.097 557.693 310.500 C 555.491 316.000 552.184 322.871 550.345 325.769 C 548.505 328.668 547.000 331.255 547.000 331.519 C 547.000 331.784 552.063 332.015 558.250 332.033 C 571.534 332.073 574.200 333.338 574.200 339.606 C 574.200 346.115 573.165 346.462 552.716 346.807 L 534.500 347.114 452.275 429.280 L 370.050 511.446 284.662 426.127 C 193.634 335.172 193.604 335.140 185.050 316.816 C 179.635 305.218 176.477 293.512 174.980 279.492 C 171.440 246.346 184.195 211.669 208.661 187.919 C 224.559 172.486 240.909 163.385 262.500 157.948 C 269.902 156.084 274.340 155.671 287.500 155.617 C 307.696 155.534 320.493 158.201 337.360 166.008 C 345.494 169.773 360.285 179.609 365.000 184.389 C 366.925 186.340 368.826 187.951 369.223 187.968 C 369.621 187.986 374.877 184.268 380.902 179.706 C 395.796 168.430 409.473 161.722 426.000 157.586 C 439.953 154.094 462.764 154.087 477.000 157.571 "/></g>
<g fill="#007F00FF" stroke="#007F00FF">
<path d="M 272.000 161.956 C 266.999 162.711 260.548 164.315 252.500 166.806 C 246.050 168.802 235.348 174.253 227.435 179.573 C 218.291 185.720 204.479 199.460 198.860 208.000 C 173.713 246.214 173.986 292.749 199.582 331.000 C 202.515 335.383 230.834 364.375 286.515 420.000 C 331.936 465.375 369.241 502.627 369.415 502.782 C 369.589 502.937 405.004 467.961 448.116 425.057 L 526.500 347.049 494.005 347.275 L 461.510 347.500 439.338 382.788 C 427.143 402.197 416.882 417.618 416.536 417.058 C 416.189 416.497 414.382 411.642 412.520 406.269 C 410.658 400.896 407.274 391.325 405.000 385.000 C 402.726 378.675 399.357 369.225 397.514 364.000 C 392.746 350.486 384.303 326.724 381.346 318.500 C 379.962 314.650 378.460 310.375 378.008 309.000 C 377.556 307.625 375.300 301.325 372.996 295.000 C 370.691 288.675 368.378 282.038 367.856 280.250 C 367.333 278.463 366.727 277.000 366.508 277.000 C 366.158 277.000 351.922 305.790 337.458 335.750 L 332.509 346.000 315.822 346.000 C 300.059 346.000 299.100 346.110 298.505 347.984 C 298.159 349.075 296.167 351.693 294.079 353.802 C 285.681 362.284 272.883 362.622 264.128 354.592 C 251.955 343.429 256.380 323.901 272.285 318.596 C 278.177 316.631 279.296 316.648 285.223 318.792 C 290.219 320.599 297.460 326.723 298.509 330.029 C 299.082 331.833 300.067 332.000 310.112 332.000 L 321.090 332.000 344.738 284.000 C 357.745 257.600 368.698 236.000 369.077 236.000 C 369.456 236.000 369.995 236.788 370.274 237.750 C 370.553 238.713 373.118 246.025 375.974 254.000 C 378.829 261.975 381.538 269.625 381.992 271.000 C 382.446 272.375 385.823 282.050 389.496 292.500 C 393.169 302.950 397.012 313.975 398.037 317.000 C 399.061 320.025 401.750 327.675 404.012 334.000 C 410.752 352.851 417.118 371.185 418.683 376.250 C 419.490 378.863 420.454 380.991 420.825 380.980 C 421.196 380.969 428.400 369.944 436.834 356.480 L 452.168 332.000 495.980 332.000 L 539.792 332.000 542.817 327.250 C 556.567 305.667 562.710 277.791 558.960 254.000 C 555.254 230.489 545.461 210.766 528.956 193.574 C 517.690 181.839 500.736 170.893 487.500 166.808 C 471.519 161.876 469.774 161.624 451.500 161.594 C 437.242 161.571 432.149 161.937 427.000 163.352 C 405.643 169.222 390.678 177.380 376.573 190.841 C 373.600 193.678 370.776 196.000 370.298 196.000 C 369.819 196.000 367.419 194.171 364.964 191.936 C 348.892 177.302 333.966 169.060 313.500 163.518 C 306.561 161.639 280.582 160.661 272.000 161.956 M 316.000 168.517 C 331.230 172.753 348.605 182.159 358.000 191.256 C 359.925 193.120 363.412 196.352 365.749 198.438 L 369.998 202.231 376.270 196.366 C 391.397 182.218 407.145 173.058 424.500 168.311 C 433.478 165.855 436.186 165.572 451.000 165.542 C 463.405 165.517 469.296 165.944 474.736 167.263 C 517.132 177.542 548.175 211.198 554.573 253.820 C 556.348 265.641 556.351 272.977 554.586 284.500 C 552.509 298.060 547.144 312.641 540.158 323.713 L 537.500 327.927 498.500 327.972 C 477.050 327.997 457.138 328.301 454.250 328.648 C 449.239 329.250 448.857 329.511 445.866 334.389 C 433.596 354.395 422.580 370.964 421.996 370.295 C 421.615 369.858 416.015 354.650 409.553 336.500 C 390.319 282.483 387.943 275.813 385.416 268.750 C 384.087 265.038 381.875 258.850 380.500 255.000 C 376.949 245.058 373.482 235.364 371.247 229.133 L 369.322 223.766 366.244 230.133 C 364.550 233.635 356.331 250.450 347.977 267.500 C 339.624 284.550 329.720 304.843 325.968 312.596 L 319.146 326.692 310.956 327.324 L 302.765 327.955 298.245 322.928 C 291.990 315.970 287.744 314.000 279.008 314.000 C 268.185 314.000 261.592 317.721 256.244 326.847 C 253.926 330.801 253.532 332.589 253.562 338.992 C 253.613 349.433 257.598 356.336 266.633 361.631 C 270.298 363.778 272.304 364.222 278.349 364.222 C 287.263 364.222 291.700 362.220 298.044 355.334 L 302.498 350.500 318.579 350.167 L 334.660 349.834 349.403 320.509 C 357.511 304.380 364.708 290.414 365.396 289.473 C 366.476 287.996 367.072 289.043 369.753 297.131 C 371.461 302.284 374.724 311.675 377.004 318.000 C 379.284 324.325 382.666 334.000 384.521 339.500 C 386.376 345.000 390.202 356.025 393.023 364.000 C 395.844 371.975 399.670 383.000 401.525 388.500 C 403.380 394.000 406.764 403.675 409.046 410.000 C 411.328 416.325 413.633 423.005 414.170 424.844 C 414.707 426.683 415.450 427.885 415.823 427.516 C 416.195 427.147 427.093 409.892 440.040 389.172 L 463.580 351.500 488.021 351.232 C 501.464 351.084 513.124 351.217 513.933 351.528 C 514.936 351.913 492.372 375.124 442.953 424.547 C 403.106 464.397 370.195 496.889 369.817 496.751 C 367.762 496.000 207.942 335.569 204.219 330.520 C 194.996 318.008 188.208 301.398 185.502 284.714 C 183.614 273.071 183.614 264.929 185.502 253.286 C 192.897 207.692 227.149 173.298 272.500 165.925 C 275.250 165.478 284.025 165.284 292.000 165.493 C 303.803 165.804 308.267 166.366 316.000 168.517 "/></g>
<g fill="#007F00FF" stroke="#007F00FF">
<path d="M 1744.000 156.085 C 1733.407 158.821 1728.229 161.126 1720.500 166.544 C 1703.767 178.274 1692.858 196.604 1687.373 222.204 C 1686.077 228.254 1685.596 234.968 1685.596 247.000 C 1685.596 269.908 1689.044 285.134 1697.986 301.711 C 1707.947 320.180 1721.775 332.287 1739.100 337.709 C 1746.134 339.910 1769.206 340.146 1776.500 338.092 C 1799.849 331.515 1817.737 311.707 1826.367 282.872 C 1831.760 264.851 1833.160 246.951 1830.502 230.000 C 1827.302 209.587 1822.853 197.459 1813.694 184.172 C 1800.391 164.874 1781.279 154.891 1758.020 155.090 C 1752.234 155.140 1745.925 155.587 1744.000 156.085 M 1771.701 167.208 C 1783.886 173.293 1791.881 189.262 1795.506 214.754 C 1797.666 229.948 1797.157 272.417 1794.657 285.500 C 1789.369 313.178 1779.616 327.120 1763.590 329.911 C 1752.979 331.759 1744.680 329.031 1737.109 321.208 C 1727.906 311.698 1722.691 294.982 1720.352 267.500 C 1717.918 238.886 1720.424 208.349 1726.607 191.304 C 1732.065 176.257 1739.860 167.763 1750.718 165.030 C 1756.494 163.577 1766.513 164.616 1771.701 167.208 "/></g>
<g fill="#007F00FF" stroke="#007F00FF">
<path d="M 1103.870 192.002 C 1091.810 193.921 1081.540 198.814 1074.138 206.167 C 1064.548 215.694 1060.042 225.366 1059.237 238.153 C 1058.231 254.110 1064.525 268.045 1077.297 278.140 C 1081.408 281.390 1081.820 282.000 1079.905 282.000 C 1078.655 282.000 1074.902 282.766 1071.566 283.702 C 1059.806 287.001 1052.053 298.481 1054.954 308.299 C 1058.949 321.822 1072.966 328.409 1107.500 332.993 C 1126.844 335.560 1144.703 339.281 1149.911 341.831 C 1151.787 342.749 1154.712 345.230 1156.411 347.344 C 1159.235 350.858 1159.497 351.807 1159.461 358.402 C 1159.386 372.217 1151.706 382.017 1137.000 387.062 C 1121.317 392.443 1100.129 389.869 1090.009 381.354 C 1083.865 376.184 1082.233 369.549 1084.469 358.831 C 1086.497 349.112 1086.399 345.369 1084.031 342.043 C 1079.434 335.588 1066.114 335.892 1059.599 342.601 C 1051.732 350.701 1052.184 367.686 1060.557 378.664 C 1063.342 382.315 1075.781 391.000 1078.225 391.000 C 1078.981 391.000 1080.028 391.374 1080.550 391.831 C 1083.773 394.652 1102.823 397.956 1116.000 397.979 C 1147.906 398.035 1173.154 386.305 1182.685 367.000 C 1185.075 362.158 1185.406 360.303 1185.450 351.500 C 1185.495 342.538 1185.224 340.981 1182.839 336.500 C 1177.679 326.802 1169.514 321.336 1153.788 317.052 C 1143.552 314.263 1139.387 313.525 1116.500 310.447 C 1088.396 306.667 1080.199 304.220 1077.380 298.768 C 1075.466 295.066 1076.888 290.827 1080.615 289.130 C 1083.643 287.750 1090.352 287.667 1094.842 288.955 C 1102.112 291.040 1116.622 291.991 1125.113 290.940 C 1141.256 288.941 1151.871 284.158 1161.549 274.522 C 1168.340 267.761 1171.354 262.105 1173.699 251.722 C 1175.453 243.956 1174.697 235.068 1171.475 225.579 C 1170.599 222.998 1170.021 219.449 1170.191 217.693 C 1170.494 214.560 1170.593 214.501 1175.500 214.563 C 1178.250 214.597 1182.312 214.976 1184.526 215.405 C 1190.493 216.560 1193.164 214.067 1193.768 206.778 C 1194.350 199.768 1192.718 194.648 1189.424 193.147 C 1185.922 191.552 1175.453 191.712 1172.200 193.411 C 1167.416 195.910 1162.000 203.119 1162.000 206.986 C 1162.000 209.979 1160.216 209.453 1155.446 205.057 C 1150.805 200.779 1141.377 195.634 1134.086 193.401 C 1128.272 191.620 1111.233 190.831 1103.870 192.002 M 1125.517 202.113 C 1132.540 205.414 1137.880 213.091 1141.090 224.500 C 1142.964 231.161 1142.964 252.836 1141.091 259.500 C 1138.314 269.378 1132.800 277.463 1126.602 280.744 C 1122.114 283.119 1110.224 283.032 1106.507 280.597 C 1095.676 273.500 1090.884 261.830 1090.785 242.313 C 1090.731 231.650 1091.065 229.075 1093.456 221.722 C 1099.317 203.707 1112.176 195.842 1125.517 202.113 "/></g>
<g fill="#007F00FF" stroke="#007F00FF">
<path d="M 846.000 191.568 C 830.719 194.222 821.535 197.459 812.871 203.245 C 805.901 207.899 799.527 215.443 798.040 220.797 C 796.650 225.799 796.757 232.973 798.265 235.893 C 801.049 241.289 810.815 243.605 817.468 240.448 C 821.335 238.613 825.161 232.050 827.058 224.000 C 828.987 215.812 832.648 208.516 836.545 205.095 C 841.106 201.090 849.609 198.659 857.149 199.204 C 869.480 200.096 872.190 205.857 871.774 230.288 L 871.500 246.427 868.500 247.139 C 866.850 247.530 862.800 248.385 859.500 249.039 C 849.732 250.974 837.914 254.418 828.500 258.072 C 805.956 266.823 795.760 274.696 789.740 288.000 C 788.126 291.568 787.690 294.676 787.640 303.000 C 787.582 312.442 787.838 314.004 790.184 318.500 C 797.219 331.983 810.000 338.963 827.701 338.988 C 846.079 339.015 860.061 331.472 868.961 316.733 C 870.865 313.580 872.836 311.000 873.341 311.000 C 873.858 311.000 873.988 313.078 873.638 315.750 C 871.744 330.198 871.698 333.891 873.381 336.459 C 876.194 340.752 882.233 339.847 898.000 332.767 C 902.792 330.615 906.447 329.390 918.000 326.063 C 920.129 325.451 920.545 324.667 920.800 320.787 L 921.100 316.230 916.163 316.304 C 910.487 316.390 906.416 314.224 904.935 310.329 C 904.348 308.786 904.025 291.377 904.125 266.632 C 904.262 232.578 904.024 224.382 902.744 219.000 C 899.150 203.886 894.906 198.805 881.732 193.844 C 877.691 192.323 873.314 191.790 862.500 191.504 C 854.800 191.301 847.375 191.329 846.000 191.568 M 872.000 276.547 L 872.000 298.093 867.470 305.947 C 857.627 323.011 843.808 330.024 831.947 323.973 C 827.247 321.575 822.433 315.317 820.888 309.596 C 819.034 302.732 820.207 290.336 823.289 284.218 C 829.589 271.711 844.025 261.727 863.333 256.524 C 872.784 253.977 872.000 252.165 872.000 276.547 "/></g>
<g fill="#007F00FF" stroke="#007F00FF">
<path d="M 1260.500 191.589 C 1244.985 193.689 1234.276 198.778 1223.999 208.936 C 1211.679 221.114 1207.028 230.273 1203.007 250.283 C 1200.784 261.344 1202.026 279.712 1205.873 292.668 C 1207.833 299.270 1215.579 312.512 1220.746 318.093 C 1230.000 328.087 1244.324 335.496 1259.082 337.919 C 1283.980 342.008 1308.165 331.863 1317.498 313.417 C 1320.588 307.309 1319.930 305.000 1315.100 305.000 C 1311.508 305.000 1308.401 307.354 1306.384 311.602 C 1303.930 316.775 1296.781 323.471 1290.358 326.613 C 1285.451 329.014 1283.577 329.359 1275.618 329.329 C 1267.743 329.300 1265.712 328.916 1260.719 326.516 C 1246.765 319.807 1237.415 300.986 1236.244 277.250 L 1235.738 267.000 1275.468 267.000 C 1319.371 267.000 1319.786 266.946 1323.544 260.734 C 1325.157 258.067 1325.486 255.747 1325.423 247.500 C 1325.311 233.040 1322.078 223.239 1313.887 212.535 C 1307.051 203.600 1296.091 196.426 1284.682 193.416 C 1279.197 191.969 1265.397 190.927 1260.500 191.589 M 1277.030 202.250 C 1287.827 207.704 1294.941 225.735 1294.983 247.750 L 1295.000 257.000 1265.369 257.000 L 1235.738 257.000 1236.244 246.750 C 1237.096 229.472 1241.973 215.389 1249.891 207.336 C 1257.040 200.066 1268.467 197.924 1277.030 202.250 "/></g>
<g fill="#007F00FF" stroke="#007F00FF">
<path d="M 1628.971 153.531 C 1623.907 158.921 1618.871 159.525 1581.269 159.250 L 1547.038 159.001 1546.587 161.250 C 1546.171 163.326 1545.434 171.350 1542.982 200.500 C 1542.473 206.550 1541.602 216.900 1541.045 223.500 C 1540.488 230.100 1539.758 237.638 1539.423 240.250 L 1538.812 245.000 1544.373 245.000 C 1549.571 245.000 1550.274 244.698 1555.162 240.356 C 1569.168 227.917 1590.049 224.727 1605.684 232.638 C 1627.384 243.617 1637.094 276.749 1626.891 305.000 C 1620.193 323.548 1604.786 333.222 1587.143 329.957 C 1572.233 327.197 1567.627 322.206 1561.195 301.840 C 1559.518 296.527 1557.480 290.902 1556.667 289.340 C 1550.101 276.717 1533.483 278.082 1530.098 291.524 C 1527.826 300.548 1532.234 310.611 1543.085 321.174 C 1549.271 327.195 1557.534 332.246 1566.500 335.486 C 1576.516 339.105 1598.905 340.155 1610.188 337.534 C 1625.564 333.963 1637.693 327.214 1647.735 316.642 C 1658.917 304.871 1663.908 292.512 1663.949 276.500 C 1664.010 252.532 1650.742 231.225 1629.292 220.842 C 1618.463 215.601 1611.733 214.071 1599.500 214.071 C 1581.382 214.071 1567.264 219.278 1555.319 230.365 L 1549.000 236.229 1549.000 229.075 C 1549.000 225.141 1549.425 217.776 1549.945 212.711 C 1550.465 207.645 1551.183 198.663 1551.541 192.750 L 1552.192 182.000 1593.040 182.000 L 1633.888 182.000 1636.451 179.750 C 1638.478 177.970 1639.717 174.734 1642.386 164.250 L 1645.759 151.000 1638.554 151.000 C 1632.137 151.000 1631.088 151.277 1628.971 153.531 "/></g>
<g fill="#007F00FF" stroke="#007F00FF">
<path d="M 961.500 195.326 C 950.400 200.683 944.032 203.132 936.250 205.037 C 932.140 206.043 932.000 206.208 932.000 210.039 L 932.000 214.000 937.277 214.000 C 943.260 214.000 946.235 215.620 948.580 220.156 C 950.878 224.599 950.781 317.158 948.476 320.678 C 946.507 323.682 942.090 325.889 936.517 326.653 L 932.000 327.272 932.000 331.636 L 932.000 336.000 965.000 336.000 L 998.000 336.000 998.000 331.500 C 998.000 327.883 997.657 326.999 996.250 326.994 C 992.294 326.982 986.484 324.637 983.829 321.983 L 981.000 319.154 981.000 279.634 L 981.000 240.114 983.533 233.281 C 986.419 225.495 991.975 217.607 996.922 214.274 C 999.538 212.511 1001.666 212.008 1006.398 212.036 C 1012.135 212.071 1012.884 212.365 1018.916 216.956 C 1028.436 224.202 1035.995 224.765 1041.773 218.659 C 1045.984 214.210 1047.486 209.035 1045.957 204.250 C 1042.705 194.071 1030.176 188.328 1016.915 190.937 C 1001.586 193.953 992.437 200.769 983.494 215.836 L 977.500 225.933 977.832 220.717 C 978.014 217.848 978.541 213.700 979.002 211.500 C 979.463 209.300 980.156 204.445 980.541 200.712 C 981.133 194.973 980.967 193.621 979.466 191.962 C 976.738 188.948 973.436 189.567 961.500 195.326 "/></g>
<g fill="#007F00FF" stroke="#007F00FF">
<path d="M 1474.000 161.158 C 1465.516 165.175 1449.022 170.000 1443.773 170.000 C 1441.153 170.000 1441.000 170.249 1441.000 174.500 L 1441.000 179.000 1447.889 179.000 C 1459.980 179.000 1458.817 171.571 1459.184 251.096 C 1459.523 324.722 1459.729 321.444 1454.582 324.240 C 1453.437 324.863 1450.250 325.882 1447.500 326.506 C 1442.556 327.628 1442.497 327.688 1442.193 331.820 L 1441.885 336.000 1475.443 336.000 L 1509.000 336.000 1509.000 331.629 L 1509.000 327.258 1504.120 326.610 C 1501.437 326.254 1497.724 324.942 1495.870 323.694 L 1492.500 321.424 1491.603 264.462 C 1490.930 221.717 1491.018 201.817 1491.956 184.731 C 1493.090 164.069 1493.055 161.733 1491.580 159.481 C 1489.190 155.834 1484.249 156.306 1474.000 161.158 "/></g>
<g fill="#007F00FF" stroke="#007F00FF">
<path d="M 726.562 160.353 C 725.189 171.339 721.866 179.303 716.140 185.332 C 711.408 190.314 708.747 191.637 700.608 193.055 L 693.896 194.223 694.198 198.362 L 694.500 202.500 701.750 202.794 L 709.000 203.088 709.015 253.794 C 709.031 309.014 709.303 312.274 714.730 322.246 C 719.627 331.243 728.620 336.664 740.240 337.623 C 748.751 338.326 756.875 337.009 763.649 333.826 C 771.288 330.238 773.000 328.315 773.000 323.320 C 773.000 320.944 772.745 319.000 772.433 319.000 C 772.122 319.000 770.434 320.063 768.683 321.362 C 759.277 328.341 747.882 327.189 743.299 318.794 C 741.638 315.753 741.477 311.180 741.204 259.250 L 740.907 203.000 756.418 203.000 C 771.036 203.000 771.993 202.882 773.028 200.948 C 773.631 199.820 773.985 197.908 773.813 196.698 C 773.507 194.550 773.130 194.494 757.250 194.225 L 741.000 193.950 741.000 174.475 L 741.000 155.000 734.115 155.000 L 727.230 155.000 726.562 160.353 "/></g>
<g fill="#007F00FF" stroke="#007F00FF">
<path d="M 1371.811 163.485 C 1368.186 181.690 1360.575 190.736 1347.052 192.914 C 1340.732 193.932 1339.045 195.012 1339.015 198.059 C 1338.980 201.644 1341.339 202.927 1348.500 203.217 L 1355.500 203.500 1356.000 259.500 L 1356.500 315.500 1359.221 320.659 C 1362.319 326.534 1368.400 331.937 1375.580 335.194 C 1379.648 337.040 1382.317 337.432 1391.000 337.459 C 1401.275 337.490 1401.672 337.405 1409.500 333.495 L 1417.500 329.500 1417.805 324.157 L 1418.111 318.814 1414.805 321.207 C 1404.180 328.900 1392.675 327.025 1388.823 316.973 C 1387.282 312.952 1387.103 306.966 1387.054 257.775 L 1387.000 203.051 1402.750 202.775 L 1418.500 202.500 1418.807 198.250 L 1419.115 194.000 1403.057 194.000 L 1387.000 194.000 1387.000 174.500 L 1387.000 155.000 1380.250 155.001 L 1373.500 155.002 1371.811 163.485 "/></g>
<g fill="#007F00FF" stroke="#007F00FF">
<path d="M 1219.000 480.000 L 1219.000 508.000 1229.322 508.000 C 1240.605 508.000 1246.715 506.489 1251.137 502.606 C 1255.008 499.207 1256.000 496.766 1256.000 490.642 C 1256.000 482.245 1251.251 477.578 1240.697 475.602 L 1236.894 474.890 1241.184 472.621 C 1249.270 468.345 1251.083 460.365 1244.992 455.861 C 1241.926 453.595 1233.819 452.000 1225.364 452.000 L 1219.000 452.000 1219.000 480.000 M 1241.696 478.956 C 1246.371 481.807 1248.385 485.469 1248.385 491.122 C 1248.385 499.679 1242.203 504.996 1232.250 504.998 L 1227.000 505.000 1227.000 491.000 L 1227.000 477.000 1232.750 477.004 C 1236.684 477.006 1239.509 477.623 1241.696 478.956 M 1239.545 457.455 C 1241.987 459.896 1242.797 464.758 1241.379 468.455 C 1240.450 470.875 1235.621 473.000 1231.050 473.000 L 1227.000 473.000 1227.000 464.000 L 1227.000 455.000 1232.045 455.000 C 1236.069 455.000 1237.588 455.497 1239.545 457.455 "/></g>
<g fill="#007F00FF" stroke="#007F00FF">
<path d="M 1677.750 453.080 C 1676.152 454.011 1676.000 456.441 1676.000 481.110 L 1676.000 508.121 1679.750 507.810 L 1683.500 507.500 1683.777 492.625 L 1684.055 477.751 1688.994 478.225 C 1691.711 478.486 1694.660 479.303 1695.549 480.040 C 1696.437 480.777 1700.148 487.370 1703.796 494.690 C 1710.291 507.724 1710.496 508.000 1713.714 508.000 C 1716.056 508.000 1717.000 507.542 1717.000 506.404 C 1717.000 504.803 1706.805 484.734 1704.649 482.092 C 1704.017 481.317 1701.799 479.921 1699.721 478.989 L 1695.941 477.294 1700.255 475.647 C 1705.441 473.666 1708.000 469.824 1708.000 464.019 C 1708.000 458.377 1704.297 454.658 1697.154 453.126 C 1690.671 451.736 1680.101 451.711 1677.750 453.080 M 1698.954 458.948 C 1701.903 462.347 1701.707 468.384 1698.545 471.545 C 1696.481 473.610 1695.131 474.000 1690.045 474.000 L 1684.000 474.000 1684.000 464.884 L 1684.000 455.767 1690.454 456.178 C 1695.689 456.511 1697.296 457.035 1698.954 458.948 "/></g>
<g fill="#007F00FF" stroke="#007F00FF">
<path d="M 1054.223 453.557 C 1052.026 455.095 1052.000 455.405 1052.000 480.357 C 1052.000 498.657 1052.330 505.930 1053.200 506.800 C 1054.026 507.626 1059.036 508.000 1069.260 508.000 L 1084.121 508.000 1083.810 504.250 L 1083.500 500.500 1071.750 500.218 L 1060.000 499.937 1060.000 491.500 L 1060.000 483.063 1071.750 482.782 L 1083.500 482.500 1083.830 479.609 C 1084.018 477.966 1083.586 476.353 1082.830 475.874 C 1082.099 475.410 1076.663 475.024 1070.750 475.015 L 1060.000 475.000 1060.000 467.532 L 1060.000 460.063 1071.750 459.782 L 1083.500 459.500 1083.830 456.609 C 1084.018 454.966 1083.586 453.353 1082.830 452.874 C 1082.099 452.410 1075.863 452.024 1068.973 452.015 C 1059.234 452.003 1055.950 452.347 1054.223 453.557 "/></g>
<g fill="#007F00FF" stroke="#007F00FF">
<path d="M 1589.000 452.729 C 1588.175 453.043 1587.169 453.795 1586.765 454.400 C 1586.361 455.005 1586.024 466.807 1586.015 480.628 C 1586.003 500.842 1586.271 505.980 1587.386 506.906 C 1588.326 507.686 1593.397 507.967 1603.136 507.778 C 1617.278 507.504 1617.505 507.464 1617.827 505.195 C 1618.458 500.740 1616.614 500.000 1604.878 500.000 L 1594.000 500.000 1594.000 491.532 L 1594.000 483.063 1605.750 482.782 L 1617.500 482.500 1617.830 479.609 C 1618.018 477.966 1617.586 476.353 1616.830 475.874 C 1616.099 475.410 1610.663 475.024 1604.750 475.015 L 1594.000 475.000 1594.000 467.532 L 1594.000 460.063 1605.750 459.782 C 1617.161 459.508 1617.509 459.434 1617.827 457.195 C 1618.479 452.597 1616.745 451.994 1603.128 452.079 C 1596.182 452.122 1589.825 452.415 1589.000 452.729 "/></g>
<g fill="#007F00FF" stroke="#007F00FF">
<path d="M 1322.674 453.250 C 1321.125 454.383 1320.990 456.973 1321.233 481.000 L 1321.500 507.500 1336.812 507.776 L 1352.124 508.053 1351.812 504.276 L 1351.500 500.500 1339.750 500.218 L 1328.000 499.937 1328.000 491.468 L 1328.000 483.000 1340.060 483.000 L 1352.121 483.000 1351.810 479.250 L 1351.500 475.500 1339.750 475.218 L 1328.000 474.937 1328.000 467.468 L 1328.000 460.000 1340.000 460.000 L 1352.000 460.000 1352.000 456.607 C 1352.000 454.435 1351.431 452.995 1350.418 452.607 C 1347.315 451.416 1324.456 451.946 1322.674 453.250 "/></g>
<g fill="#007F00FF" stroke="#007F00FF">
<path d="M 953.499 455.644 C 951.306 457.837 951.472 458.367 962.352 483.779 C 971.380 504.866 971.740 505.509 974.691 505.803 C 977.997 506.133 977.962 506.196 985.484 486.493 C 986.850 482.915 989.072 477.177 990.421 473.743 C 995.856 459.907 996.512 457.322 995.039 455.546 C 994.289 454.643 992.756 454.038 991.632 454.202 C 989.567 454.503 988.905 455.823 982.570 472.243 C 975.598 490.313 974.684 492.187 973.696 490.422 C 973.173 489.487 969.628 481.258 965.819 472.137 C 958.015 453.449 957.022 452.121 953.499 455.644 "/></g>
<g fill="#007F00FF" stroke="#007F00FF">
<path d="M 1399.510 455.969 C 1398.455 459.291 1399.783 460.000 1407.059 460.000 L 1414.000 460.000 1414.000 482.800 C 1414.000 499.200 1414.337 505.937 1415.200 506.800 C 1416.914 508.514 1420.678 508.282 1421.393 506.418 C 1421.727 505.548 1422.000 494.767 1422.000 482.460 L 1422.000 460.084 1429.750 459.792 C 1437.272 459.509 1437.500 459.426 1437.500 457.000 L 1437.500 454.500 1418.824 454.228 C 1400.865 453.967 1400.124 454.034 1399.510 455.969 "/></g>
<g fill="#007F00FF" stroke="#007F00FF">
<path d="M 1494.667 454.667 C 1494.300 455.033 1494.000 456.383 1494.000 457.667 C 1494.000 459.903 1494.310 460.000 1501.482 460.000 L 1508.964 460.000 1509.232 483.750 L 1509.500 507.500 1511.944 507.845 C 1516.596 508.502 1517.000 506.462 1517.000 482.309 L 1517.000 460.000 1524.417 460.000 C 1532.045 460.000 1533.165 459.390 1532.221 455.750 C 1531.809 454.164 1530.060 454.000 1513.550 454.000 C 1503.531 454.000 1495.033 454.300 1494.667 454.667 "/></g>
<g fill="#007F00FF" stroke="#007F00FF">
<path d="M 808.667 453.667 C 807.392 454.942 807.899 505.499 809.200 506.800 C 809.976 507.576 813.995 508.000 820.578 508.000 C 828.644 508.000 831.028 507.671 832.070 506.416 C 833.021 505.269 833.095 504.373 832.337 503.166 C 831.539 501.896 829.472 501.431 823.645 501.208 L 816.000 500.916 816.000 478.158 C 816.000 461.791 815.663 455.063 814.800 454.200 C 813.506 452.906 809.753 452.580 808.667 453.667 "/></g>
<g fill="#007F00FF" stroke="#007F00FF">
<path d="M 887.621 453.289 C 886.140 454.372 885.993 457.299 886.233 481.000 L 886.500 507.500 888.887 507.837 C 890.200 508.023 891.655 507.573 892.122 506.837 C 892.588 506.102 892.976 493.928 892.985 479.785 C 892.999 455.721 892.880 454.006 891.138 453.074 C 889.842 452.380 888.773 452.446 887.621 453.289 "/></g>
</svg>
