<?xml version="1.0" encoding="utf-8"?>
<!DOCTYPE svg PUBLIC "-//W3C//DTD SVG 20010904//EN" "http://www.w3.org/TR/2001/REC-SVG-20010904/DTD/svg10.dtd">
<svg version="1.0" xmlns="http://www.w3.org/2000/svg" width="2002pt" height="2002pt" viewBox="0 0 2002 2002" style="" preserveAspectRatio="xMidYMid meet">
<g fill="#027F00FF" stroke="#027F00FF">
<path d="M 974.500 1.584 C 956.227 2.234 923.205 4.123 913.500 5.074 C 870.651 9.269 824.892 15.846 802.500 21.027 C 800.300 21.536 792.200 23.301 784.500 24.950 C 722.806 38.159 649.922 62.223 593.180 88.116 C 589.704 89.702 586.631 91.000 586.350 91.000 C 585.141 91.000 534.339 116.454 522.500 122.991 C 438.037 169.632 366.237 223.170 298.661 289.897 C 228.592 359.087 171.444 434.755 122.991 522.500 C 116.454 534.339 91.000 585.141 91.000 586.350 C 91.000 586.631 89.702 589.704 88.116 593.180 C 62.223 649.922 38.159 722.806 24.950 784.500 C 23.301 792.200 21.536 800.300 21.027 802.500 C 13.847 833.533 5.971 894.807 2.840 944.000 C 0.459 981.408 1.512 1049.280 5.076 1088.000 C 8.719 1127.585 15.734 1176.625 21.027 1199.500 C 21.536 1201.700 23.301 1209.800 24.950 1217.500 C 38.159 1279.194 62.223 1352.078 88.116 1408.820 C 89.702 1412.296 91.000 1415.369 91.000 1415.650 C 91.000 1416.859 116.454 1467.661 122.991 1479.500 C 171.444 1567.245 228.592 1642.913 298.661 1712.103 C 366.237 1778.830 438.037 1832.368 522.500 1879.009 C 534.339 1885.546 585.141 1911.000 586.350 1911.000 C 586.631 1911.000 589.704 1912.298 593.180 1913.884 C 649.922 1939.777 722.806 1963.841 784.500 1977.050 C 792.200 1978.699 800.300 1980.464 802.500 1980.973 C 825.375 1986.266 874.415 1993.281 914.000 1996.924 C 965.024 2001.620 1036.976 2001.620 1088.000 1996.924 C 1127.495 1993.290 1175.647 1986.408 1199.500 1980.990 C 1201.700 1980.490 1208.000 1979.128 1213.500 1977.962 C 1277.315 1964.433 1351.074 1940.235 1408.820 1913.884 C 1412.296 1912.298 1415.369 1911.000 1415.650 1911.000 C 1416.859 1911.000 1467.661 1885.546 1479.500 1879.009 C 1564.026 1832.333 1635.713 1778.880 1703.339 1712.103 C 1773.455 1642.868 1830.524 1567.303 1879.009 1479.500 C 1885.546 1467.661 1911.000 1416.859 1911.000 1415.650 C 1911.000 1415.369 1912.298 1412.296 1913.884 1408.820 C 1940.235 1351.074 1964.433 1277.315 1977.962 1213.500 C 1979.128 1208.000 1980.490 1201.700 1980.990 1199.500 C 1988.314 1167.258 1996.031 1107.164 1999.160 1058.000 C 2001.541 1020.592 2000.488 952.720 1996.924 914.000 C 1993.281 874.415 1986.266 825.375 1980.973 802.500 C 1980.464 800.300 1978.699 792.200 1977.050 784.500 C 1963.841 722.806 1939.777 649.922 1913.884 593.180 C 1912.298 589.704 1911.000 586.631 1911.000 586.350 C 1911.000 585.141 1885.546 534.339 1879.009 522.500 C 1830.556 434.755 1773.408 359.087 1703.339 289.897 C 1635.763 223.170 1563.963 169.632 1479.500 122.991 C 1467.661 116.454 1416.859 91.000 1415.650 91.000 C 1415.369 91.000 1412.296 89.702 1408.820 88.116 C 1352.078 62.223 1279.194 38.159 1217.500 24.950 C 1209.800 23.301 1201.700 21.536 1199.500 21.027 C 1176.411 15.685 1125.885 8.477 1087.500 5.050 C 1058.023 2.418 1000.573 0.656 974.500 1.584 M 1377.449 511.986 C 1389.859 514.018 1400.706 522.071 1406.500 533.554 L 1409.500 539.500 1409.500 1010.733 L 1409.500 1481.967 1405.914 1485.553 C 1401.801 1489.666 1395.991 1491.431 1391.144 1490.041 C 1389.412 1489.545 1380.233 1484.673 1370.747 1479.215 C 1328.748 1455.051 1312.599 1445.719 1299.640 1438.123 C 1292.017 1433.656 1285.663 1430.000 1285.520 1430.000 C 1285.376 1430.000 1280.138 1427.018 1273.880 1423.374 C 1263.430 1417.290 1237.281 1402.153 1224.000 1394.500 C 1220.975 1392.756 1209.275 1385.968 1198.000 1379.415 L 1177.500 1367.500 899.000 1367.000 L 620.500 1366.500 614.591 1363.510 C 605.921 1359.123 599.607 1352.978 595.781 1345.206 L 592.500 1338.542 592.500 939.021 L 592.500 539.500 595.500 533.554 C 601.083 522.488 612.243 513.963 623.650 512.049 C 630.796 510.850 1370.134 510.788 1377.449 511.986 "/></g>
<g fill="#FFFFFFFF" stroke="#FFFFFFFF">
<path d="M 623.650 512.049 C 612.243 513.963 601.083 522.488 595.500 533.554 L 592.500 539.500 592.500 939.021 L 592.500 1338.542 595.781 1345.206 C 599.607 1352.978 605.921 1359.123 614.591 1363.510 L 620.500 1366.500 899.000 1367.000 L 1177.500 1367.500 1198.000 1379.415 C 1209.275 1385.968 1220.975 1392.756 1224.000 1394.500 C 1237.281 1402.153 1263.430 1417.290 1273.880 1423.374 C 1280.138 1427.018 1285.376 1430.000 1285.520 1430.000 C 1285.663 1430.000 1292.017 1433.656 1299.640 1438.123 C 1312.599 1445.719 1328.748 1455.051 1370.747 1479.215 C 1380.233 1484.673 1389.412 1489.545 1391.144 1490.041 C 1395.991 1491.431 1401.801 1489.666 1405.914 1485.553 L 1409.500 1481.967 1409.500 1010.733 L 1409.500 539.500 1406.500 533.554 C 1400.706 522.071 1389.859 514.018 1377.449 511.986 C 1370.134 510.788 630.796 510.850 623.650 512.049 M 747.223 1124.849 C 748.721 1125.757 755.021 1129.921 761.223 1134.102 C 799.691 1160.037 852.820 1184.379 898.500 1196.998 C 910.228 1200.238 914.177 1201.238 923.729 1203.387 C 970.875 1213.992 1025.822 1216.062 1070.000 1208.896 C 1132.970 1198.682 1193.283 1171.763 1248.332 1129.303 C 1258.269 1121.638 1264.263 1120.666 1271.670 1125.520 C 1277.473 1129.322 1279.779 1138.658 1276.488 1145.023 C 1272.267 1153.185 1228.465 1182.903 1197.185 1198.827 C 1135.961 1229.994 1078.242 1243.996 1011.000 1243.996 C 947.098 1243.995 887.404 1231.066 823.000 1203.276 C 784.904 1186.837 731.862 1155.383 725.985 1145.744 C 723.657 1141.926 723.381 1135.097 725.398 1131.198 C 729.572 1123.125 739.578 1120.215 747.223 1124.849 "/></g>
<g fill="#027F00FF" stroke="#027F00FF">
<path d="M 734.684 1123.437 C 727.621 1125.977 723.997 1130.987 724.004 1138.200 C 724.006 1140.718 724.827 1143.844 725.985 1145.744 C 731.862 1155.383 784.904 1186.837 823.000 1203.276 C 887.404 1231.066 947.098 1243.995 1011.000 1243.996 C 1078.242 1243.996 1135.961 1229.994 1197.185 1198.827 C 1228.465 1182.903 1272.267 1153.185 1276.488 1145.023 C 1279.779 1138.658 1277.473 1129.322 1271.670 1125.520 C 1264.263 1120.666 1258.269 1121.638 1248.332 1129.303 C 1193.283 1171.763 1132.970 1198.682 1070.000 1208.896 C 1033.480 1214.820 986.955 1214.429 947.000 1207.864 C 927.837 1204.715 912.800 1201.187 888.500 1194.139 C 849.619 1182.862 796.105 1157.619 761.223 1134.102 C 742.677 1121.599 741.316 1121.052 734.684 1123.437 "/></g>
</svg>
