<?xml version="1.0" encoding="utf-8"?>
<!DOCTYPE svg PUBLIC "-//W3C//DTD SVG 20010904//EN" "http://www.w3.org/TR/2001/REC-SVG-20010904/DTD/svg10.dtd">
<svg version="1.0" xmlns="http://www.w3.org/2000/svg" width="800pt" height="658pt" viewBox="0 0 800 658" style="" preserveAspectRatio="xMidYMid meet">
<g fill="#000000FF" stroke="#000000FF">
<path d="M 202.161 74.999 C 188.989 76.868 177.140 82.298 164.685 92.173 C 151.864 102.339 142.552 116.695 137.880 133.500 C 133.742 148.385 135.191 173.532 142.107 206.834 C 158.250 284.567 199.470 359.597 261.081 423.396 C 334.950 499.888 432.093 549.934 524.468 559.087 C 566.067 563.209 596.396 548.577 612.271 516.726 C 619.570 502.081 620.290 497.398 620.757 461.511 C 621.218 426.134 620.981 424.199 615.453 418.080 C 610.302 412.379 602.987 409.673 570.835 401.579 C 527.849 390.757 506.559 386.529 495.000 386.518 C 480.646 386.504 477.256 388.452 458.500 407.497 C 436.803 429.527 431.081 432.932 414.371 433.753 C 395.558 434.678 384.724 429.349 353.000 403.567 C 321.466 377.938 278.400 330.054 267.500 308.500 C 260.829 295.310 259.618 281.830 263.876 268.150 C 266.551 259.555 270.731 254.041 286.113 238.818 C 301.536 223.554 306.259 217.033 308.738 207.583 C 310.111 202.350 310.221 200.249 309.329 196.325 C 308.727 193.671 306.624 184.525 304.657 176.000 C 302.690 167.475 299.057 150.150 296.582 137.500 C 289.805 102.855 285.438 88.985 278.996 81.648 C 273.238 75.090 273.389 75.117 239.365 74.583 C 222.389 74.317 205.648 74.504 202.161 74.999 "/></g>
</svg>
