<?xml version="1.0" encoding="utf-8"?>
<!DOCTYPE svg PUBLIC "-//W3C//DTD SVG 20010904//EN" "http://www.w3.org/TR/2001/REC-SVG-20010904/DTD/svg10.dtd">
<svg version="1.0" xmlns="http://www.w3.org/2000/svg" width="848pt" height="554pt" viewBox="0 0 848 554" style="" preserveAspectRatio="xMidYMid meet">
<g fill="#000000FF" stroke="#000000FF">
<path d="M 125.255 300.750 C 125.543 410.364 125.727 422.003 127.249 426.955 C 135.806 454.778 163.796 481.217 191.500 487.644 C 199.168 489.423 208.570 489.497 418.000 489.440 L 636.500 489.379 644.500 487.195 C 670.545 480.086 692.451 460.979 702.984 436.185 C 709.355 421.188 709.033 428.865 708.754 298.728 L 708.500 180.277 662.500 208.299 C 432.936 348.142 427.791 351.215 421.447 352.302 C 409.765 354.303 410.727 354.798 330.486 305.517 C 156.038 198.378 126.025 180.000 125.497 180.000 C 125.190 180.000 125.081 234.338 125.255 300.750 "/></g>
<g fill="#000000FF" stroke="#000000FF">
<path d="M 357.000 57.015 C 209.829 57.509 197.011 57.684 191.168 59.283 C 165.067 66.423 142.759 85.450 132.858 109.016 C 131.275 112.783 129.704 117.880 129.367 120.342 C 128.760 124.768 128.803 124.851 133.126 127.585 C 137.335 130.247 365.584 269.985 398.642 290.139 C 407.520 295.551 415.448 300.235 416.260 300.546 C 417.134 300.882 432.581 291.972 454.118 278.711 C 556.044 215.952 700.835 126.499 703.306 124.759 C 706.566 122.464 706.438 120.719 702.238 110.161 C 694.556 90.853 676.756 72.577 657.500 64.227 C 640.204 56.727 631.443 55.945 568.038 56.239 C 539.692 56.371 444.725 56.720 357.000 57.015 "/></g>
</svg>
