<?xml version="1.0" encoding="utf-8"?>
<!DOCTYPE svg PUBLIC "-//W3C//DTD SVG 20010904//EN" "http://www.w3.org/TR/2001/REC-SVG-20010904/DTD/svg10.dtd">
<svg version="1.0" xmlns="http://www.w3.org/2000/svg" width="626pt" height="527pt" viewBox="0 0 626 527" style="" preserveAspectRatio="xMidYMid meet">
<g fill="#027D01FF" stroke="#027D01FF">
<path d="M 313.171 16.006 C 312.616 17.378 309.808 25.925 306.932 35.000 C 304.055 44.075 297.950 62.975 293.365 77.000 C 288.779 91.025 283.287 107.900 281.160 114.500 C 273.281 138.940 259.644 180.793 256.559 190.000 L 253.375 199.500 155.327 200.000 L 57.279 200.500 82.809 219.000 C 96.851 229.175 110.851 239.335 113.920 241.579 C 145.831 264.902 161.229 276.118 165.000 278.786 C 167.475 280.537 174.286 285.464 180.136 289.735 C 185.986 294.006 196.224 301.467 202.886 306.317 C 209.549 311.166 215.000 315.747 215.000 316.497 C 215.000 317.752 210.786 331.833 209.015 336.500 C 208.597 337.600 206.908 342.775 205.261 348.000 C 200.840 362.027 184.896 411.181 184.015 413.500 C 183.597 414.600 181.908 419.775 180.261 425.000 C 175.604 439.776 159.865 488.267 159.002 490.500 C 157.311 494.872 155.702 501.035 156.138 501.472 C 156.527 501.860 168.044 493.740 190.000 477.598 C 192.475 475.778 210.925 462.369 231.000 447.801 C 251.075 433.232 274.025 416.505 282.000 410.628 C 306.919 392.268 313.009 388.000 314.287 388.000 C 314.968 388.000 321.443 392.388 328.675 397.750 C 349.706 413.344 377.882 433.885 416.000 461.413 C 435.525 475.513 456.338 490.600 462.250 494.939 C 468.163 499.278 473.000 502.603 473.000 502.327 C 473.000 502.051 471.653 497.702 470.006 492.662 C 459.491 460.476 446.113 419.273 436.836 390.500 C 433.999 381.700 428.445 364.600 424.494 352.500 C 420.543 340.400 416.268 327.247 414.993 323.271 L 412.676 316.042 415.564 313.771 C 417.152 312.522 423.637 307.725 429.976 303.111 C 436.314 298.497 443.750 293.047 446.500 290.999 C 457.769 282.610 559.017 209.212 565.428 204.785 L 572.356 200.000 474.428 199.985 C 420.568 199.976 376.024 199.639 375.441 199.235 C 374.859 198.831 372.200 191.750 369.532 183.500 C 366.864 175.250 362.563 161.975 359.973 154.000 C 357.383 146.025 351.759 128.700 347.474 115.500 C 311.868 5.808 314.366 13.051 313.171 16.006 "/></g>
<g fill="#45A044FB" stroke="#45A044FB">
<path d="M 253.150 198.000 C 253.051 198.659 219.400 199.000 154.500 199.000 C 100.325 199.000 56.000 199.338 56.000 199.750 C 56.000 200.163 100.437 200.275 154.750 200.000 C 232.892 199.604 253.479 199.239 253.400 198.250 C 253.345 197.563 253.233 197.450 253.150 198.000 "/></g>
<g fill="#45A044FB" stroke="#45A044FB">
<path d="M 374.000 197.781 C 374.000 198.430 375.013 199.207 376.250 199.506 C 377.488 199.805 422.150 199.924 475.500 199.770 L 572.500 199.490 474.450 199.245 C 399.798 199.058 376.114 198.714 375.200 197.800 C 374.288 196.888 374.000 196.884 374.000 197.781 "/></g>
</svg>
