<?xml version="1.0" encoding="utf-8"?>
<!DOCTYPE svg PUBLIC "-//W3C//DTD SVG 20010904//EN" "http://www.w3.org/TR/2001/REC-SVG-20010904/DTD/svg10.dtd">
<svg version="1.0" xmlns="http://www.w3.org/2000/svg" width="1202pt" height="1202pt" viewBox="0 0 1202 1202" style="" preserveAspectRatio="xMidYMid meet">
<g fill="#027D01FF" stroke="#027D01FF">
<path d="M 642.171 310.006 C 641.616 311.378 638.808 319.925 635.932 329.000 C 633.055 338.075 626.950 356.975 622.365 371.000 C 617.779 385.025 612.287 401.900 610.160 408.500 C 602.281 432.940 588.644 474.793 585.559 484.000 L 582.375 493.500 484.327 494.000 L 386.279 494.500 411.809 513.000 C 425.851 523.175 439.851 533.335 442.920 535.579 C 474.831 558.902 490.229 570.118 494.000 572.786 C 496.475 574.537 503.286 579.464 509.136 583.735 C 514.986 588.006 525.224 595.467 531.886 600.317 C 538.549 605.166 544.000 609.747 544.000 610.497 C 544.000 611.752 539.786 625.833 538.015 630.500 C 537.597 631.600 535.908 636.775 534.261 642.000 C 529.840 656.027 513.896 705.181 513.015 707.500 C 512.597 708.600 510.908 713.775 509.261 719.000 C 504.604 733.776 488.865 782.267 488.002 784.500 C 486.311 788.872 484.702 795.035 485.138 795.472 C 485.527 795.860 497.044 787.740 519.000 771.598 C 521.475 769.778 539.925 756.369 560.000 741.801 C 580.075 727.232 603.025 710.505 611.000 704.628 C 635.919 686.268 642.009 682.000 643.287 682.000 C 643.968 682.000 650.443 686.388 657.675 691.750 C 678.706 707.344 706.882 727.885 745.000 755.413 C 764.525 769.513 785.338 784.600 791.250 788.939 C 797.163 793.278 802.000 796.603 802.000 796.327 C 802.000 796.051 800.653 791.702 799.006 786.662 C 788.491 754.476 775.113 713.273 765.836 684.500 C 762.999 675.700 757.445 658.600 753.494 646.500 C 749.543 634.400 745.268 621.247 743.993 617.271 L 741.676 610.042 744.564 607.771 C 746.152 606.522 752.637 601.725 758.976 597.111 C 765.314 592.497 772.750 587.047 775.500 584.999 C 786.769 576.610 888.017 503.212 894.428 498.785 L 901.356 494.000 803.428 493.985 C 749.568 493.976 705.024 493.639 704.441 493.235 C 703.859 492.831 701.200 485.750 698.532 477.500 C 695.864 469.250 691.563 455.975 688.973 448.000 C 686.383 440.025 680.759 422.700 676.474 409.500 C 640.868 299.808 643.366 307.051 642.171 310.006 "/></g>
<g fill="#45A044FB" stroke="#45A044FB">
<path d="M 582.150 492.000 C 582.051 492.659 548.400 493.000 483.500 493.000 C 429.325 493.000 385.000 493.338 385.000 493.750 C 385.000 494.163 429.437 494.275 483.750 494.000 C 561.892 493.604 582.479 493.239 582.400 492.250 C 582.345 491.563 582.233 491.450 582.150 492.000 "/></g>
<g fill="#45A044FB" stroke="#45A044FB">
<path d="M 703.000 491.781 C 703.000 492.430 704.013 493.207 705.250 493.506 C 706.488 493.805 751.150 493.924 804.500 493.770 L 901.500 493.490 803.450 493.245 C 728.798 493.058 705.114 492.714 704.200 491.800 C 703.288 490.888 703.000 490.884 703.000 491.781 "/></g>
</svg>
