<?xml version="1.0" encoding="utf-8"?>
<!DOCTYPE svg PUBLIC "-//W3C//DTD SVG 20010904//EN" "http://www.w3.org/TR/2001/REC-SVG-20010904/DTD/svg10.dtd">
<svg version="1.0" xmlns="http://www.w3.org/2000/svg" width="2001pt" height="1792pt" viewBox="0 0 2001 1792" style="" preserveAspectRatio="xMidYMid meet">
<g fill="#007F00FF" stroke="#007F00FF">
<path d="M 683.500 317.594 C 680.750 317.804 672.200 318.431 664.500 318.988 C 533.682 328.443 410.571 400.545 337.501 510.500 C 325.836 528.053 325.018 529.391 316.709 544.500 C 296.500 581.250 280.548 625.669 271.997 669.001 C 265.853 700.139 264.586 714.669 264.586 754.000 C 264.586 789.332 264.953 795.005 269.013 822.500 C 273.849 855.255 287.198 901.322 300.059 929.645 C 306.048 942.833 312.197 955.367 316.668 963.500 C 323.700 976.291 323.452 975.881 334.859 993.500 C 355.953 1026.080 371.270 1044.097 412.159 1084.427 C 433.237 1105.217 989.518 1659.655 1000.291 1670.610 C 1000.725 1671.053 1138.425 1534.101 1306.291 1366.274 L 1611.500 1061.133 1616.323 1060.442 C 1622.418 1059.569 1640.477 1059.408 1683.500 1059.845 C 1711.910 1060.134 1719.062 1059.916 1727.000 1058.522 C 1755.021 1053.598 1767.562 1043.665 1771.050 1023.632 C 1773.644 1008.736 1768.884 994.952 1757.000 982.944 C 1746.149 971.980 1746.234 972.000 1711.011 972.000 C 1694.505 972.000 1681.000 971.726 1681.000 971.391 C 1681.000 971.056 1685.192 962.619 1690.315 952.641 C 1716.006 902.607 1730.146 854.168 1737.062 792.500 C 1738.660 778.245 1738.660 728.755 1737.062 714.500 C 1730.519 656.160 1717.037 608.850 1693.612 562.030 C 1671.511 517.854 1646.570 482.815 1612.558 448.156 C 1557.855 392.414 1493.553 354.226 1419.000 333.205 C 1404.390 329.085 1394.507 326.755 1382.177 324.522 C 1349.143 318.539 1312.055 316.082 1281.402 317.845 C 1242.545 320.080 1216.332 324.263 1180.500 333.949 C 1171.150 336.477 1146.878 344.867 1138.500 348.469 C 1136.850 349.178 1131.450 351.459 1126.500 353.538 C 1087.467 369.932 1041.176 399.963 1009.048 429.736 L 1001.595 436.642 988.820 425.417 C 919.340 364.368 831.012 326.990 737.486 319.058 C 723.914 317.907 691.070 317.016 683.500 317.594 M 1336.500 334.542 C 1364.671 337.244 1381.991 340.347 1406.654 347.109 C 1568.264 391.421 1692.686 529.434 1718.033 692.500 C 1721.401 714.173 1722.272 726.726 1722.263 753.500 C 1722.244 808.774 1713.705 852.978 1692.707 906.500 C 1683.387 930.255 1675.877 945.186 1661.267 969.003 C 1657.353 975.384 1651.000 987.430 1651.000 988.471 C 1651.000 988.762 1670.037 989.000 1693.304 989.000 L 1735.608 989.000 1740.054 991.847 C 1750.028 998.234 1753.943 1004.691 1753.978 1014.812 C 1753.994 1019.541 1753.358 1022.481 1751.440 1026.535 C 1748.815 1032.084 1742.149 1038.761 1738.527 1039.471 C 1735.621 1040.041 1652.234 1042.023 1628.500 1042.087 C 1617.500 1042.116 1607.742 1042.446 1606.815 1042.820 C 1605.888 1043.194 1469.412 1179.095 1303.535 1344.823 C 1137.657 1510.551 1001.547 1646.001 1001.067 1645.823 C 998.199 1644.760 389.153 1036.819 380.118 1026.000 C 345.624 984.695 319.903 939.017 302.975 889.000 C 300.648 882.125 298.390 875.150 297.957 873.500 C 297.523 871.850 295.807 865.325 294.142 859.000 C 276.487 791.904 276.634 715.434 294.548 647.500 C 299.677 628.048 309.212 600.391 315.731 586.056 C 331.197 552.050 344.190 529.767 364.486 502.445 C 394.525 462.008 434.946 424.873 478.500 397.701 C 490.736 390.068 522.843 373.232 535.000 368.074 C 564.316 355.638 601.068 345.072 634.319 339.521 C 657.681 335.621 709.273 333.757 734.130 335.915 C 776.654 339.607 817.011 349.017 855.500 364.215 C 861.000 366.387 866.850 368.776 868.500 369.524 C 918.901 392.369 953.929 415.729 992.674 452.333 L 999.907 459.166 1005.814 454.333 C 1009.063 451.675 1016.846 445.197 1023.110 439.938 C 1042.378 423.762 1066.792 405.531 1081.689 396.195 C 1122.787 370.438 1175.573 349.721 1224.500 340.145 C 1258.619 333.467 1302.443 331.275 1336.500 334.542 "/></g>
<g fill="#007F00FF" stroke="#007F00FF">
<path d="M 672.500 354.550 C 629.715 357.811 593.120 365.865 556.000 380.191 C 467.269 414.434 394.305 478.072 349.266 560.500 C 323.511 607.637 309.608 652.302 301.798 713.000 C 300.126 725.993 300.137 782.431 301.814 795.500 C 309.061 851.963 321.360 893.390 343.975 937.500 C 359.382 967.550 373.673 989.237 394.390 1014.000 C 402.194 1023.329 998.504 1619.500 1000.031 1619.500 C 1000.460 1619.500 1131.115 1489.336 1290.375 1330.246 L 1579.939 1040.992 1459.311 1041.246 L 1338.683 1041.500 1326.741 1060.500 C 1298.265 1105.808 1289.247 1120.183 1282.513 1131.000 C 1275.679 1141.978 1251.272 1180.875 1226.981 1219.500 C 1220.755 1229.400 1212.876 1242.000 1209.471 1247.500 C 1189.267 1280.143 1174.599 1303.000 1173.855 1303.000 C 1173.385 1303.000 1173.000 1302.385 1173.000 1301.633 C 1173.000 1300.882 1172.120 1298.069 1171.045 1295.383 C 1169.970 1292.698 1166.119 1281.950 1162.486 1271.500 C 1158.854 1261.050 1155.029 1250.250 1153.986 1247.500 C 1152.943 1244.750 1149.569 1235.300 1146.488 1226.500 C 1143.407 1217.700 1139.592 1206.900 1138.010 1202.500 C 1136.429 1198.100 1131.243 1183.475 1126.486 1170.000 C 1121.729 1156.525 1115.663 1139.425 1113.005 1132.000 C 1110.347 1124.575 1106.520 1113.775 1104.500 1108.000 C 1102.480 1102.225 1098.655 1091.425 1096.000 1084.000 C 1093.345 1076.575 1089.522 1065.775 1087.504 1060.000 C 1080.707 1040.548 1077.864 1032.524 1075.990 1027.500 C 1073.370 1020.478 1069.468 1009.429 1064.865 996.000 C 1062.697 989.675 1060.061 982.250 1059.009 979.500 C 1057.956 976.750 1053.212 963.475 1048.466 950.000 C 1043.720 936.525 1037.663 919.425 1035.005 912.000 C 1032.347 904.575 1028.520 893.775 1026.500 888.000 C 1024.480 882.225 1020.657 871.425 1018.004 864.000 C 1015.351 856.575 1010.630 843.300 1007.512 834.500 C 997.511 806.273 996.245 802.712 991.894 790.600 L 987.619 778.700 978.445 797.600 C 969.538 815.951 962.290 830.834 940.996 874.500 C 935.364 886.050 927.265 902.700 922.998 911.500 C 913.691 930.696 900.256 958.281 885.006 989.500 C 878.827 1002.150 870.896 1018.463 867.381 1025.750 L 860.991 1039.000 800.187 1039.000 L 739.383 1039.000 736.046 1045.250 C 724.515 1066.850 708.330 1080.849 686.414 1088.180 C 680.437 1090.180 677.536 1090.490 665.000 1090.468 C 649.757 1090.442 642.506 1088.998 631.000 1083.697 C 610.734 1074.361 595.385 1056.576 588.969 1035.000 C 585.858 1024.536 585.190 1008.154 587.418 996.948 C 590.047 983.732 597.107 970.179 606.643 960.041 C 623.230 942.409 640.804 934.582 663.500 934.718 C 694.815 934.905 722.993 953.103 737.100 982.250 L 739.399 987.000 758.038 987.000 C 768.289 987.000 786.927 986.702 799.455 986.337 L 822.234 985.674 839.496 950.587 C 848.991 931.289 865.871 897.050 877.008 874.500 C 888.145 851.950 903.219 821.350 910.506 806.500 C 917.794 791.650 932.639 761.500 943.496 739.500 C 954.352 717.500 970.850 684.015 980.157 665.089 C 989.547 645.994 997.447 631.084 997.906 631.589 C 998.362 632.090 999.892 635.875 1001.307 640.000 C 1002.722 644.125 1005.308 651.550 1007.053 656.500 C 1008.799 661.450 1012.172 671.125 1014.548 678.000 C 1016.925 684.875 1021.643 698.375 1025.033 708.000 C 1028.423 717.625 1033.147 731.125 1035.531 738.000 C 1037.916 744.875 1041.298 754.550 1043.047 759.500 C 1044.796 764.450 1048.172 774.125 1050.548 781.000 C 1052.925 787.875 1057.644 801.375 1061.034 811.000 C 1064.424 820.625 1069.613 835.475 1072.564 844.000 C 1075.515 852.525 1080.237 866.025 1083.057 874.000 C 1085.876 881.975 1091.086 896.825 1094.633 907.000 C 1102.882 930.659 1108.069 945.508 1116.989 971.000 C 1120.934 982.275 1126.582 998.475 1129.540 1007.000 C 1132.498 1015.525 1137.227 1029.025 1140.048 1037.000 C 1142.869 1044.975 1147.594 1058.475 1150.548 1067.000 C 1153.502 1075.525 1158.227 1089.025 1161.048 1097.000 C 1163.870 1104.975 1166.547 1112.625 1166.998 1114.000 C 1167.449 1115.375 1170.810 1125.050 1174.466 1135.500 C 1178.123 1145.950 1182.274 1157.875 1183.691 1162.000 C 1185.107 1166.125 1186.645 1169.917 1187.109 1170.426 C 1188.496 1171.950 1191.214 1168.711 1199.007 1156.249 C 1203.048 1149.787 1208.914 1140.450 1212.042 1135.500 C 1221.235 1120.954 1233.969 1100.684 1245.022 1083.000 C 1250.694 1073.925 1259.439 1059.975 1264.455 1052.000 C 1269.471 1044.025 1280.232 1026.881 1288.368 1013.903 L 1303.161 990.306 1319.831 989.662 C 1328.999 989.307 1401.075 988.760 1480.000 988.445 C 1558.925 988.131 1624.437 987.687 1625.582 987.460 C 1629.049 986.771 1647.821 957.210 1659.529 934.000 C 1677.899 897.584 1689.477 862.034 1696.981 819.000 C 1698.038 812.942 1699.444 801.658 1700.991 786.830 C 1703.048 767.115 1701.724 719.805 1698.575 700.500 C 1698.306 698.850 1697.580 694.350 1696.963 690.500 C 1680.964 590.803 1628.373 501.355 1549.000 438.843 C 1513.599 410.962 1473.162 389.260 1428.500 374.172 C 1395.961 363.180 1364.710 357.196 1325.000 354.355 C 1305.977 352.994 1299.410 352.927 1282.500 353.922 C 1241.208 356.351 1210.082 362.045 1175.238 373.543 C 1122.845 390.832 1075.134 418.533 1034.000 455.546 C 1027.757 461.163 1003.846 483.412 1001.932 485.384 C 1001.620 485.705 997.552 482.488 992.891 478.234 C 965.048 452.821 952.015 441.698 936.091 429.759 C 903.848 405.584 851.375 379.573 815.500 369.981 C 813.850 369.540 808.978 368.223 804.673 367.056 C 780.922 360.612 756.042 356.588 727.000 354.495 C 703.182 352.778 695.648 352.785 672.500 354.550 M 735.000 372.467 C 784.567 377.468 825.102 388.574 866.831 408.589 C 907.401 428.048 935.294 447.581 968.011 479.445 C 985.322 496.304 995.823 506.197 999.279 508.901 C 1000.891 510.163 1002.344 509.035 1014.779 496.868 C 1077.170 435.820 1127.694 404.846 1197.000 385.156 C 1268.363 364.881 1351.384 366.487 1420.500 389.479 C 1460.054 402.637 1498.874 422.791 1531.000 446.846 C 1545.803 457.931 1557.760 468.470 1573.554 484.354 C 1603.723 514.695 1625.343 544.769 1644.574 583.148 C 1665.050 624.009 1677.080 665.435 1683.156 716.000 C 1684.859 730.167 1684.845 778.226 1683.134 793.000 C 1675.870 855.726 1656.268 911.183 1623.697 961.154 L 1618.142 969.676 1593.321 970.331 C 1579.670 970.692 1507.750 971.243 1433.500 971.557 C 1359.250 971.871 1297.488 972.332 1296.252 972.582 C 1295.015 972.832 1292.932 974.716 1291.623 976.769 C 1290.313 978.821 1284.975 987.250 1279.761 995.500 C 1274.547 1003.750 1265.566 1017.925 1259.804 1027.000 C 1254.042 1036.075 1243.789 1052.275 1237.018 1063.000 C 1230.247 1073.725 1221.697 1087.225 1218.018 1093.000 C 1214.338 1098.775 1207.343 1109.756 1202.472 1117.403 C 1195.346 1128.590 1193.470 1130.934 1192.869 1129.403 C 1191.992 1127.169 1188.269 1116.655 1180.512 1094.500 C 1177.431 1085.700 1174.056 1076.250 1173.013 1073.500 C 1171.971 1070.750 1168.586 1061.300 1165.492 1052.500 C 1162.398 1043.700 1159.027 1034.250 1158.001 1031.500 C 1155.996 1026.127 1149.596 1008.175 1140.532 982.500 C 1137.425 973.700 1134.036 964.250 1133.000 961.500 C 1131.964 958.750 1128.575 949.300 1125.468 940.500 C 1122.362 931.700 1117.647 918.425 1114.992 911.000 C 1112.337 903.575 1107.622 890.300 1104.516 881.500 C 1101.409 872.700 1098.017 863.250 1096.979 860.500 C 1095.941 857.750 1091.216 844.475 1086.479 831.000 C 1081.742 817.525 1077.023 804.250 1075.993 801.500 C 1074.962 798.750 1070.680 786.825 1066.476 775.000 C 1062.273 763.175 1056.662 747.425 1054.007 740.000 C 1051.352 732.575 1046.638 719.300 1043.532 710.500 C 1040.425 701.700 1037.036 692.250 1036.000 689.500 C 1034.964 686.750 1031.575 677.300 1028.468 668.500 C 1025.362 659.700 1020.647 646.425 1017.992 639.000 C 1015.337 631.575 1010.617 618.300 1007.503 609.500 C 998.993 585.451 998.811 584.999 997.872 585.579 C 997.392 585.876 997.000 586.482 997.000 586.926 C 997.000 587.370 990.198 601.631 981.885 618.617 C 973.571 635.603 963.499 656.250 959.502 664.500 C 955.504 672.750 947.512 689.175 941.740 701.000 C 925.422 734.433 911.571 762.838 901.999 782.500 C 897.179 792.400 888.628 809.950 882.998 821.500 C 877.368 833.050 869.039 850.150 864.490 859.500 C 859.942 868.850 850.183 888.875 842.804 904.000 C 835.425 919.125 825.420 939.655 820.569 949.622 L 811.750 967.744 800.625 968.356 C 794.506 968.693 780.725 969.229 770.000 969.546 L 750.500 970.124 746.015 962.812 C 732.467 940.726 707.833 924.091 681.000 918.908 C 672.006 917.171 652.099 917.393 643.404 919.328 C 627.337 922.904 611.632 931.086 599.431 942.237 C 586.857 953.729 575.163 973.546 570.952 990.500 C 567.805 1003.173 567.809 1021.864 570.963 1034.500 C 580.016 1070.769 608.866 1098.867 645.000 1106.608 C 653.542 1108.438 674.590 1108.398 683.500 1106.535 C 708.270 1101.356 725.890 1089.507 743.632 1066.098 C 747.134 1061.476 750.000 1057.374 750.000 1056.981 C 750.000 1056.588 777.113 1055.941 810.250 1055.542 C 843.388 1055.144 870.785 1054.521 871.133 1054.159 C 871.481 1053.797 897.526 1002.055 929.010 939.177 C 960.494 876.299 986.606 825.224 987.036 825.677 C 987.702 826.379 992.706 840.365 1000.031 862.000 C 1001.055 865.025 1003.320 871.550 1005.064 876.500 C 1006.809 881.450 1010.180 891.125 1012.557 898.000 C 1014.933 904.875 1020.104 919.725 1024.048 931.000 C 1027.992 942.275 1031.810 953.300 1032.532 955.500 C 1033.254 957.700 1036.610 967.375 1039.989 977.000 C 1047.283 997.773 1054.435 1018.368 1057.006 1026.000 C 1058.025 1029.025 1061.856 1040.050 1065.520 1050.500 C 1069.183 1060.950 1073.005 1071.975 1074.014 1075.000 C 1075.022 1078.025 1077.281 1084.550 1079.033 1089.500 C 1083.493 1102.094 1096.798 1140.381 1099.016 1147.000 C 1100.029 1150.025 1103.856 1161.050 1107.520 1171.500 C 1111.183 1181.950 1115.016 1192.975 1116.037 1196.000 C 1117.058 1199.025 1119.320 1205.550 1121.064 1210.500 C 1122.809 1215.450 1126.178 1225.125 1128.551 1232.000 C 1130.925 1238.875 1135.636 1252.375 1139.020 1262.000 C 1142.405 1271.625 1145.542 1280.625 1145.991 1282.000 C 1146.441 1283.375 1150.254 1294.400 1154.466 1306.500 C 1158.678 1318.600 1163.306 1331.949 1164.751 1336.165 L 1167.379 1343.830 1171.103 1339.665 C 1175.119 1335.173 1185.400 1318.951 1233.954 1240.500 C 1241.783 1227.850 1250.349 1214.125 1252.989 1210.000 C 1255.629 1205.875 1264.179 1192.150 1271.989 1179.500 C 1279.799 1166.850 1288.340 1153.125 1290.969 1149.000 C 1293.597 1144.875 1302.152 1131.150 1309.978 1118.500 C 1317.804 1105.850 1326.343 1092.125 1328.954 1088.000 C 1331.565 1083.875 1336.580 1075.888 1340.099 1070.250 L 1346.497 1060.000 1441.499 1060.042 L 1536.500 1060.085 1268.500 1327.519 C 1121.100 1474.608 1000.082 1594.964 999.572 1594.977 C 998.145 1595.013 417.803 1014.666 409.599 1005.000 C 371.653 960.288 344.507 908.623 329.999 853.500 C 303.868 754.214 317.683 650.136 368.823 561.000 C 391.053 522.254 423.222 484.764 459.000 455.907 C 495.055 426.827 533.073 405.779 575.383 391.473 C 606.104 381.086 628.686 376.307 667.000 372.085 C 679.831 370.671 719.397 370.893 735.000 372.467 "/></g>
</svg>
